<svg aria-hidden="true" viewBox="0 0 32 32" style="position: absolute; width: 0; height: 0; overflow: hidden;" version="1.1" xmlns="http://www.w3.org/2000/svg" xmlns:xlink="http://www.w3.org/1999/xlink">

<path fill="#24cca7" style="fill: var(--color6, #24cca7)" d="M29.482 0h-2.627c-0.856 0-1.55 0.694-1.55 1.55v2.627c0 0.856 0.694 1.55 1.55 1.55h2.627c0.856 0 1.55-0.694 1.55-1.55v-2.627c0-0.856-0.694-1.55-1.55-1.55z"></path>
<path fill="#fff" style="fill: var(--color4, #fff)" d="M28.258 0.922c0.108 0 0.194 0.085 0.194 0.194v0.101c0.263 0.031 0.496 0.116 0.705 0.248 0.070 0.039 0.139 0.108 0.139 0.217 0 0.139-0.116 0.248-0.256 0.248-0.047 0-0.093-0.016-0.139-0.039-0.155-0.093-0.31-0.163-0.465-0.201v0.868c0.69 0.17 0.984 0.449 0.984 0.93 0 0.496-0.387 0.829-0.961 0.883v0.271c0 0.108-0.085 0.194-0.194 0.194s-0.201-0.085-0.201-0.194v-0.279c-0.341-0.039-0.651-0.155-0.93-0.356-0.077-0.046-0.124-0.124-0.124-0.217 0-0.139 0.108-0.248 0.248-0.248 0.054 0 0.108 0.015 0.147 0.046 0.209 0.155 0.418 0.256 0.666 0.302v-0.883c-0.659-0.17-0.969-0.418-0.969-0.93 0-0.488 0.387-0.821 0.953-0.868v-0.093c0.008-0.108 0.093-0.194 0.201-0.194zM28.079 2.464v-0.806c-0.287 0.031-0.434 0.178-0.434 0.38 0 0.194 0.085 0.31 0.434 0.426zM28.436 3.092v0.821c0.287-0.031 0.449-0.178 0.449-0.395 0-0.194-0.101-0.318-0.449-0.426z"></path>
<path fill="#ffd8d0" style="fill: var(--color9, #ffd8d0)" d="M5.424 19.487c0.039-0.969 0.023-1.937-0.039-2.906-0.132-1.991-0.457-3.975-0.907-5.92-0.256-1.092-0.566-2.169-0.891-3.247-0.008-0.031-0.062-0.023-0.054 0.008 1.007 3.789 1.829 7.702 1.774 11.638-0.016 1.1-0.147 2.185-0.248 3.277 0 0.031 0.046 0.039 0.054 0.008 0.209-0.914 0.271-1.898 0.31-2.859z"></path>
<path fill="#ffd8d0" style="fill: var(--color9, #ffd8d0)" d="M3.533 7.431s-1.526 3.874-1.185 4.781c0.341 0.907 1.046 1.1 1.046 1.1s-0.93 1.333-0.279 2.58c0.651 1.247 2.1 1.193 2.2 2.603-0.008 0.008 0.077-5.912-1.782-11.064z"></path>
<path fill="#263238" style="fill: var(--color7, #263238)" d="M5.145 16.062v-0.023c-0.217-2.634-0.682-5.253-1.48-7.787 0-0.008-0.015-0.008-0.015 0 0.302 1.131 0.573 2.27 0.798 3.417-0.201-0.201-0.457-0.318-0.728-0.403-0.008 0-0.008 0.008 0 0.008 0.279 0.124 0.55 0.263 0.752 0.504 0.046 0.225 0.085 0.449 0.132 0.674-0.341-0.38-0.814-0.573-1.286-0.752-0.008 0-0.008 0.008 0 0.008 0.496 0.201 0.984 0.457 1.317 0.883 0.116 0.643 0.217 1.286 0.31 1.937-0.248-0.263-0.558-0.434-0.907-0.519-0.008 0-0.016 0.015-0.008 0.015 0.364 0.101 0.674 0.31 0.922 0.589l0.008 0.008c0.031 0.225 0.062 0.457 0.085 0.682-0.194-0.163-0.403-0.287-0.635-0.387-0.008 0-0.008 0.008 0 0.008 0.24 0.101 0.449 0.248 0.635 0.426h0.008c0.023 0.217 0.054 0.434 0.070 0.651-0.349-0.418-0.783-0.728-1.294-0.922-0.008 0-0.015 0.008-0.008 0.015 0.496 0.217 0.938 0.558 1.271 0.984 0.008 0.008 0.023 0.015 0.031 0.008 0.031 0.333 0.062 0.666 0.085 1 0 0.008 0.008 0.008 0.008 0-0.016-0.341-0.039-0.682-0.070-1.023z"></path>
<path fill="#263238" style="fill: var(--color7, #263238)" d="M3.921 10.878c-0.263-0.178-0.604-0.256-0.914-0.287-0.008 0-0.008 0.008 0 0.015 0.325 0.046 0.604 0.17 0.907 0.294 0.008 0.008 0.015-0.015 0.008-0.023zM4.107 14.977c-0.209-0.124-0.449-0.194-0.69-0.232-0.008 0-0.008 0.008 0 0.015 0.24 0.046 0.457 0.132 0.682 0.24 0.008 0 0.016-0.015 0.008-0.023z"></path>
<path fill="#ffd8d0" style="fill: var(--color9, #ffd8d0)" d="M9.437 12.273c-0.635 0.449-1.247 0.961-1.767 1.542-0.55 0.62-0.953 1.317-1.24 2.1-0.573 1.596-0.891 3.324-0.922 5.021-0.016 0.953 0.070 1.891 0.271 2.82 0.008 0.031 0.054 0.023 0.054-0.008-0.248-1.635-0.24-3.301 0.031-4.936 0.263-1.604 0.674-3.339 1.689-4.641 0.558-0.705 1.247-1.263 1.929-1.844 0.039-0.031-0.008-0.077-0.046-0.054z"></path>
<path fill="#ffd8d0" style="fill: var(--color9, #ffd8d0)" d="M5.734 19.781s0.527-0.883 1.286-1.643c0.759-0.759 1.402-1.302 1.503-1.805s-0.767-0.876-0.767-0.876 1.054 0.186 1.348-0.256c0.287-0.442 0.426-3.006 0.426-3.006s-1.922 1.371-2.813 3.293c-0.891 1.922-0.984 4.293-0.984 4.293z"></path>
<path fill="#263238" style="fill: var(--color7, #263238)" d="M8.872 12.854c-0.806 0.79-1.619 1.643-2.1 2.681-0.163 0.356-0.302 0.728-0.426 1.108-0.023 0.077-0.046 0.155-0.070 0.225 0 0 0 0.008-0.008 0.015-0.232 0.775-0.403 1.581-0.542 2.371 0 0.008 0.008 0.008 0.008 0 0.085-0.403 0.17-0.806 0.279-1.209h0.008c0.163-0.070 0.325-0.108 0.504-0.132 0.008 0 0.008-0.023 0-0.023-0.17 0.008-0.333 0.039-0.496 0.093 0.093-0.364 0.194-0.728 0.31-1.085 0.372-0.093 0.759-0.139 1.139-0.147 0.008 0 0.008-0.008 0-0.008-0.387-0.015-0.744 0.015-1.123 0.093 0.023-0.062 0.039-0.124 0.062-0.186 0.248-0.054 0.504-0.108 0.759-0.132 0.008 0 0.008-0.008 0-0.008-0.248 0.008-0.496 0.031-0.744 0.093 0.101-0.31 0.217-0.612 0.341-0.914 0.101-0.248 0.225-0.48 0.364-0.705 0.201-0.046 0.403-0.093 0.612-0.108 0.008 0 0.008-0.008 0-0.008-0.194-0.015-0.387 0-0.573 0.054 0.101-0.163 0.209-0.325 0.318-0.48 0.434-0.093 0.868-0.186 1.309-0.101 0.008 0 0.008-0.008 0-0.015-0.418-0.108-0.837-0.046-1.255 0.039 0.046-0.062 0.093-0.124 0.139-0.178 0.263-0.085 0.527-0.124 0.806-0.124 0.008 0 0.008-0.008 0-0.008-0.256-0.023-0.504 0-0.752 0.070 0.356-0.442 0.752-0.86 1.139-1.271 0.023-0.008 0.008-0.023-0.008 0z"></path>
<path fill="#263238" style="fill: var(--color7, #263238)" d="M8.848 14.598c-0.124-0.015-0.256-0.031-0.38-0.015-0.015 0-0.015 0.023 0 0.031 0.124 0 0.256-0.008 0.38 0 0.008 0 0.008-0.015 0-0.015zM7.469 17.093c-0.201 0-0.403 0.054-0.589 0.116-0.008 0 0 0.008 0 0.008 0.194-0.047 0.395-0.062 0.589-0.101 0.016 0 0.016-0.023 0-0.023zM7.051 16.232c-0.085-0.008-0.17 0.008-0.248 0.023-0.008 0-0.008 0.015 0 0.015 0.085 0 0.17 0 0.256-0.015 0.008 0 0.008-0.023-0.008-0.023z"></path>
<path fill="#ffd8d0" style="fill: var(--color9, #ffd8d0)" d="M0.108 15c0.62 0.217 1.232 0.488 1.782 0.837 0.589 0.372 1.077 0.845 1.488 1.41 0.837 1.154 1.488 2.487 1.906 3.851 0.232 0.767 0.38 1.55 0.434 2.348 0 0.031-0.039 0.031-0.046 0.008-0.178-1.379-0.573-2.727-1.162-3.99-0.581-1.232-1.317-2.549-2.441-3.37-0.612-0.442-1.302-0.736-1.984-1.046-0.039-0.008-0.015-0.062 0.023-0.046z"></path>
<path fill="#ffd8d0" style="fill: var(--color9, #ffd8d0)" d="M4.835 20.223s-0.628-0.589-1.418-1.030c-0.79-0.442-1.441-0.728-1.635-1.116s0.418-0.883 0.418-0.883-0.814 0.395-1.147 0.108c-0.333-0.294-1.038-2.332-1.038-2.332s1.867 0.666 3.037 2.015c1.162 1.333 1.782 3.239 1.782 3.239z"></path>
<path fill="#263238" style="fill: var(--color7, #263238)" d="M4.742 19.797c-0.938-1.759-2.185-3.347-3.897-4.393 0.449 0.287 0.868 0.62 1.255 0.976-0.349-0.008-0.697 0.047-1.007 0.209-0.008 0 0 0.015 0.008 0.008 0.341-0.116 0.674-0.194 1.038-0.178 0.008 0 0.008 0 0.015-0.008 0.062 0.054 0.124 0.116 0.178 0.178-0.178 0.008-0.364 0.031-0.535 0.070-0.008 0 0 0.008 0 0.008 0.194-0.039 0.372-0.047 0.566-0.047 0.31 0.318 0.604 0.651 0.883 1-0.124-0.015-0.256-0.008-0.38 0.031-0.008 0-0.008 0.015 0 0.015 0.139-0.015 0.263-0.015 0.403-0.008 0.054 0.062 0.101 0.132 0.155 0.194-0.387-0.023-0.759 0.015-1.139 0.108-0.008 0-0.008 0.008 0 0.008 0.387-0.077 0.775-0.101 1.17-0.077 0.046 0.062 0.093 0.132 0.139 0.194-0.232-0.008-0.449 0.023-0.674 0.077-0.008 0-0.008 0.015 0 0.015 0.232-0.054 0.465-0.062 0.697-0.054 0.201 0.279 0.395 0.558 0.581 0.845-0.101-0.023-0.201-0.008-0.294 0.015-0.008 0 0 0.008 0 0.008 0.108-0.015 0.209 0 0.318 0.015 0.17 0.256 0.325 0.519 0.48 0.783 0.016 0.047 0.046 0.031 0.039 0.008z"></path>
<path fill="#263238" style="fill: var(--color7, #263238)" d="M3.285 18.34c-0.186-0.015-0.372 0.015-0.542 0.070-0.008 0 0 0.008 0 0.008 0.178-0.031 0.356-0.047 0.542-0.054 0.008 0 0.008-0.023 0-0.023zM1.65 16.201c-0.085-0.008-0.17 0-0.248 0.015-0.008 0-0.008 0.015 0 0.015 0.085-0.008 0.163-0.008 0.248-0.008 0.016 0 0.016-0.023 0-0.023z"></path>
<path fill="#455a64" style="fill: var(--color10, #455a64)" d="M7.252 26.057h-4.223l0.597-4.409 0.155-1.131h2.712l0.155 1.131 0.604 4.409z"></path>
<path fill="#263238" style="fill: var(--color7, #263238)" d="M6.648 21.648h-3.022l0.155-1.131h2.712l0.155 1.131z"></path>
<path fill="#455a64" style="fill: var(--color10, #455a64)" d="M6.88 20.122h-3.487v0.961h3.487v-0.961z"></path>
<path fill="#ebebeb" style="fill: var(--color13, #ebebeb)" d="M7.051 3.936h-2.053v0.868h2.053v-0.868zM5.904 5.029h-2.053v0.868h2.053v-0.868z"></path>
<path fill="#4a56e2" style="fill: var(--color1, #4a56e2)" d="M16.403 31.969c8.473 0 15.341-0.989 15.341-2.208s-6.869-2.208-15.341-2.208-15.341 0.989-15.341 2.208 6.869 2.208 15.341 2.208z"></path>
<path fill="#263238" style="fill: var(--color7, #263238)" d="M23.415 1.759v24.949c0 0.736-0.589 1.333-1.309 1.333h-12.901c-0.721 0-1.309-0.597-1.309-1.333v-24.949c0-0.736 0.589-1.333 1.309-1.333h12.908c0.713 0.008 1.302 0.604 1.302 1.333z"></path>
<path fill="#fff" style="fill: var(--color4, #fff)" d="M22.601 3.014v22.88c0 0.697-0.527 1.263-1.17 1.263h-11.545c-0.651 0-1.17-0.566-1.17-1.263v-22.88c0-1.426 0.527-1.743 1.17-1.743h2.309c0.132 0 0.24 0.155 0.24 0.341v0.085c0 0.442 0.24 0.449 0.542 0.449h5.346c0.302 0 0.542 0 0.542-0.449v-0.085c0-0.186 0.108-0.341 0.24-0.341h2.317c0.651 0.008 1.178 0.442 1.178 1.743z"></path>
<path fill="#fff" style="fill: var(--color4, #fff)" d="M16.387 1.588h-1.457c-0.046 0-0.093-0.039-0.093-0.093 0-0.046 0.039-0.093 0.093-0.093h1.457c0.047 0 0.093 0.039 0.093 0.093-0.008 0.054-0.047 0.093-0.093 0.093z"></path>
<path fill="#4a56e2" style="fill: var(--color1, #4a56e2)" d="M21.176 11.452l0.015 6.191c0 0.349-0.279 0.628-0.628 0.628l-9.817 0.023c-0.349 0-0.628-0.279-0.628-0.628l-0.015-6.191c0-0.325 0.256-0.581 0.581-0.581l9.902-0.023c0.325 0 0.589 0.263 0.589 0.581z"></path>
<path fill="#37474f" style="fill: var(--color12, #37474f)" d="M19.59 16.857c0.004-0.025 0.006-0.054 0.006-0.084 0-0.317-0.257-0.573-0.573-0.573-0.289 0-0.529 0.214-0.568 0.493l-0 0.003c-0.003 0.023-0.005 0.050-0.005 0.078 0 0.317 0.257 0.573 0.573 0.573 0.287 0 0.525-0.211 0.567-0.486l0-0.003z"></path>
<path fill="#ffc727" style="fill: var(--color3, #ffc727)" d="M20.308 16.775c0 0.318-0.256 0.573-0.573 0.581-0.318 0-0.573-0.256-0.581-0.573 0-0.318 0.256-0.573 0.573-0.581 0.318 0 0.581 0.256 0.581 0.573zM12.792 13.397h-1.426c-0.178 0-0.325-0.147-0.325-0.325v-0.783c0-0.178 0.147-0.325 0.325-0.325h1.426c0.178 0 0.325 0.147 0.325 0.325v0.783c0 0.178-0.147 0.318-0.325 0.325z"></path>
<path fill="#fff" style="fill: var(--color4, #fff)" d="M19.897 12.723h-0.938c-0.217 0-0.395-0.178-0.395-0.395s0.178-0.395 0.395-0.395h0.938c0.217 0 0.395 0.178 0.395 0.395 0 0.225-0.17 0.395-0.395 0.395z"></path>
<path fill="#f8f8f8" style="fill: var(--color5, #f8f8f8)" d="M10.971 14.706l-0.085 0.046h-0.008c-0.008 0-0.015-0.008-0.015-0.008-0.008-0.008 0-0.023 0.008-0.031l0.116-0.070c0.008-0.008 0.023 0 0.031 0.008v0.566c0 0.008-0.008 0.023-0.023 0.023-0.008 0-0.023-0.008-0.023-0.023v-0.511zM11.157 15.21l0.279-0.256c0.031-0.031 0.054-0.070 0.054-0.116 0-0.039-0.015-0.077-0.039-0.101-0.031-0.031-0.070-0.054-0.116-0.054-0.039 0-0.077 0.015-0.108 0.039l-0.031 0.023c-0.008 0.008-0.023 0.008-0.031 0s-0.008-0.023 0-0.031l0.031-0.031c0.039-0.031 0.085-0.054 0.132-0.054 0.054 0 0.108 0.023 0.147 0.062s0.054 0.085 0.054 0.132c0 0.054-0.023 0.108-0.062 0.147l-0.24 0.217h0.287c0.008 0 0.023 0.008 0.023 0.023 0 0.008-0.008 0.023-0.023 0.023h-0.333c-0.008 0-0.015 0-0.015-0.008-0.015 0.008-0.015-0.008-0.008-0.015zM12.033 14.683l-0.155 0.163c0.039 0.008 0.077 0.023 0.101 0.054 0.039 0.039 0.062 0.093 0.062 0.147-0.001 0.115-0.094 0.208-0.209 0.209h-0c-0.054 0-0.101-0.023-0.147-0.062-0.008-0.008-0.008-0.023 0-0.031s0.023-0.008 0.031 0c0.031 0.031 0.070 0.046 0.116 0.046 0.039 0 0.085-0.015 0.116-0.046s0.046-0.070 0.046-0.116c0-0.039-0.015-0.085-0.046-0.116s-0.070-0.046-0.116-0.046c-0.008 0-0.015 0-0.015-0.008-0.008-0.008-0.008-0.023 0-0.031l0.147-0.155h-0.232c-0.015 0-0.023-0.008-0.023-0.023s0.008-0.023 0.023-0.023h0.279c0.015 0 0.023 0.008 0.023 0.023 0.008 0 0 0.008 0 0.015 0 0 0-0.008 0 0zM12.537 15.124h-0.325c-0.008 0-0.008 0-0.015-0.008s-0.008-0.023 0-0.031l0.349-0.434c0.008-0.008 0.023-0.008 0.031 0l0.008 0.008v0.411h0.039c0.015 0 0.023 0.008 0.023 0.023 0 0.008-0.008 0.023-0.023 0.023h-0.039v0.101c0 0.008-0.008 0.023-0.023 0.023-0.008 0-0.023-0.008-0.023-0.023v-0.093zM12.537 15.078v-0.356l-0.287 0.356h0.287zM13.296 15.186c-0.008-0.008-0.008-0.023 0-0.031s0.023-0.008 0.031 0c0.031 0.031 0.070 0.046 0.116 0.046 0.039 0 0.085-0.015 0.116-0.046s0.046-0.070 0.046-0.116c0-0.039-0.015-0.085-0.046-0.116s-0.070-0.046-0.116-0.046c-0.039 0-0.085 0.015-0.116 0.046-0.008 0.008-0.023 0.008-0.031 0l-0.008-0.008v-0.015l0.031-0.24c0-0.008 0-0.015 0.008-0.015 0 0 0.008-0.008 0.015-0.008h0.279c0.015 0 0.023 0.008 0.023 0.023s-0.008 0.023-0.023 0.023h-0.263l-0.023 0.178c0.031-0.015 0.070-0.031 0.101-0.031 0.054 0 0.101 0.015 0.147 0.062 0.039 0.039 0.062 0.093 0.062 0.147s-0.015 0.108-0.062 0.147c-0.039 0.039-0.093 0.062-0.147 0.062-0.046-0.008-0.101-0.023-0.139-0.062zM13.869 14.768c0.039-0.070 0.108-0.124 0.209-0.132 0.008 0 0.023 0.008 0.023 0.023s-0.008 0.023-0.023 0.023c-0.085 0-0.139 0.046-0.178 0.108-0.023 0.039-0.031 0.077-0.046 0.124 0.039-0.039 0.093-0.070 0.147-0.070 0.108 0 0.201 0.085 0.201 0.201 0 0.108-0.085 0.201-0.201 0.201-0.108 0-0.194-0.085-0.201-0.194v-0.039c0.008-0.085 0.023-0.17 0.070-0.248zM13.854 15.047v0.015c0.008 0.077 0.077 0.139 0.155 0.139 0.085 0 0.155-0.070 0.155-0.155s-0.070-0.155-0.163-0.155c-0.077-0.008-0.147 0.062-0.147 0.155zM14.427 15.21l0.225-0.527h-0.294c-0.008 0-0.023-0.008-0.023-0.023 0-0.008 0.008-0.023 0.023-0.023h0.333c0.008 0 0.008 0.008 0.008 0.015v0.015l-0.232 0.558c0 0.008-0.008 0.015-0.015 0.015h-0.008c-0.015-0.008-0.015-0.023-0.015-0.031zM15.024 14.636c0.070 0 0.124 0.054 0.124 0.124 0 0.039-0.023 0.077-0.054 0.101 0.070 0.031 0.124 0.101 0.124 0.178 0 0.108-0.085 0.194-0.194 0.194s-0.194-0.085-0.194-0.194c0-0.077 0.046-0.155 0.124-0.178-0.031-0.023-0.046-0.062-0.046-0.101-0.008-0.070 0.046-0.124 0.116-0.124zM15.024 15.194c0.085 0 0.155-0.070 0.155-0.155s-0.070-0.155-0.155-0.155-0.155 0.070-0.155 0.155c0 0.093 0.070 0.155 0.155 0.155zM15.024 14.846c0.046 0 0.085-0.039 0.085-0.085s-0.039-0.085-0.085-0.085c-0.046 0-0.085 0.039-0.085 0.085s0.039 0.085 0.085 0.085zM16.093 14.636c0.101 0 0.186 0.077 0.201 0.178v0.062c0 0.077-0.015 0.17-0.054 0.24s-0.108 0.124-0.209 0.132c-0.015 0-0.023-0.008-0.023-0.023s0.008-0.023 0.023-0.023c0.085 0 0.139-0.046 0.178-0.108 0.023-0.039 0.039-0.077 0.047-0.124-0.039 0.039-0.093 0.070-0.147 0.070-0.108 0-0.201-0.085-0.201-0.201-0.008-0.116 0.077-0.201 0.186-0.201zM16.256 14.83c0-0.085-0.070-0.155-0.155-0.155s-0.155 0.070-0.155 0.155 0.070 0.155 0.155 0.155 0.155-0.070 0.155-0.155zM16.449 14.931c0-0.077 0.023-0.155 0.054-0.209 0.039-0.054 0.093-0.093 0.147-0.093 0.062 0 0.116 0.039 0.147 0.093 0.039 0.054 0.062 0.132 0.062 0.209s-0.023 0.155-0.054 0.209c-0.039 0.054-0.093 0.093-0.147 0.093-0.062 0-0.116-0.039-0.147-0.093-0.039-0.054-0.062-0.124-0.062-0.209zM16.488 14.931c0 0.077 0.023 0.139 0.054 0.186s0.070 0.070 0.116 0.070 0.085-0.023 0.116-0.070c0.031-0.046 0.054-0.116 0.054-0.186 0-0.077-0.023-0.139-0.054-0.186s-0.070-0.070-0.116-0.070-0.085 0.023-0.116 0.070c-0.031 0.046-0.054 0.116-0.054 0.186zM17.147 14.691l-0.085 0.046h-0.008c-0.008 0-0.015-0.008-0.015-0.008-0.008-0.008 0-0.023 0.008-0.031l0.116-0.070c0.008-0.008 0.023 0 0.031 0.008v0.566c0 0.008-0.008 0.023-0.023 0.023-0.008 0-0.023-0.008-0.023-0.023v-0.511zM17.333 15.194l0.279-0.256c0.031-0.031 0.054-0.070 0.054-0.116 0-0.039-0.015-0.077-0.039-0.101-0.031-0.031-0.070-0.054-0.116-0.054-0.039 0-0.077 0.015-0.108 0.039l-0.031 0.023c-0.008 0.008-0.023 0.008-0.031 0s-0.008-0.023 0-0.031l0.031-0.031c0.039-0.031 0.085-0.054 0.132-0.054 0.054 0 0.108 0.023 0.147 0.062s0.054 0.085 0.054 0.132c0 0.054-0.023 0.108-0.062 0.147l-0.24 0.217h0.287c0.008 0 0.023 0.008 0.023 0.023 0 0.008-0.008 0.023-0.023 0.023h-0.333c-0.008 0-0.015 0-0.015-0.008-0.015 0.008-0.015-0.008-0.008-0.015zM18.72 14.667l-0.155 0.163c0.039 0.008 0.077 0.023 0.101 0.054 0.039 0.039 0.062 0.093 0.062 0.147-0.001 0.115-0.094 0.208-0.209 0.209h-0c-0.054 0-0.101-0.023-0.147-0.062-0.008-0.008-0.008-0.023 0-0.031s0.023-0.008 0.031 0c0.031 0.031 0.070 0.046 0.116 0.046 0.039 0 0.085-0.015 0.116-0.046s0.047-0.070 0.047-0.116c0-0.039-0.015-0.085-0.047-0.116s-0.070-0.046-0.116-0.046c-0.008 0-0.015 0-0.015-0.008-0.008-0.008-0.008-0.023 0-0.031l0.147-0.155h-0.232c-0.015 0-0.023-0.008-0.023-0.023s0.008-0.023 0.023-0.023h0.279c0.015 0 0.023 0.008 0.023 0.023 0.008 0 0.008 0 0 0.015 0.008-0.008 0.008-0.008 0 0zM19.231 15.101h-0.325c-0.008 0-0.008 0-0.015-0.008s-0.008-0.023 0-0.031l0.349-0.434c0.008-0.008 0.023-0.008 0.031 0l0.008 0.008v0.411h0.039c0.015 0 0.023 0.008 0.023 0.023 0 0.008-0.008 0.023-0.023 0.023h-0.039v0.101c0 0.008-0.008 0.023-0.023 0.023-0.008 0-0.023-0.008-0.023-0.023v-0.093zM19.231 15.062v-0.356l-0.287 0.356h0.287zM19.471 15.171c-0.008-0.008-0.008-0.023 0-0.031s0.023-0.008 0.031 0c0.031 0.031 0.070 0.046 0.116 0.046 0.039 0 0.085-0.015 0.116-0.046s0.047-0.070 0.047-0.116c0-0.039-0.015-0.085-0.047-0.116s-0.070-0.046-0.116-0.046c-0.039 0-0.085 0.015-0.116 0.046-0.008 0.008-0.023 0.008-0.031 0l-0.008-0.008v-0.015l0.031-0.24c0-0.008 0-0.015 0.008-0.015 0 0 0.008-0.008 0.015-0.008h0.279c0.015 0 0.023 0.008 0.023 0.023s-0.008 0.023-0.023 0.023h-0.263l-0.023 0.178c0.031-0.015 0.070-0.031 0.101-0.031 0.054 0 0.101 0.015 0.147 0.062 0.039 0.039 0.062 0.093 0.062 0.147s-0.015 0.108-0.062 0.147c-0.039 0.039-0.093 0.062-0.147 0.062-0.047-0.008-0.101-0.023-0.139-0.062zM20.045 14.753c0.039-0.070 0.108-0.124 0.209-0.132 0.008 0 0.023 0.008 0.023 0.023s-0.008 0.023-0.023 0.023c-0.085 0-0.139 0.046-0.178 0.108-0.023 0.039-0.031 0.077-0.047 0.124 0.039-0.039 0.093-0.070 0.147-0.070 0.108 0 0.201 0.085 0.201 0.201 0 0.108-0.085 0.201-0.201 0.201-0.108 0-0.194-0.085-0.201-0.194v-0.039c0.008-0.085 0.023-0.178 0.070-0.248zM20.029 15.031v0.015c0.008 0.077 0.077 0.139 0.155 0.139 0.085 0 0.155-0.070 0.155-0.155s-0.070-0.155-0.163-0.155c-0.077-0.008-0.147 0.062-0.147 0.155z"></path>
<path fill="#263238" style="fill: var(--color7, #263238)" d="M16.31 16.272l-5.261 0.014 0.001 0.256 5.261-0.014-0.001-0.256zM14.768 16.848l-3.719 0.010 0.001 0.256 3.719-0.010-0.001-0.256zM18.2 11.944l-2.619 0.007 0.001 0.256 2.619-0.007-0.001-0.256zM10.189 9.639c0-0.008 0.008-0.023 0.023-0.023h0.155c0.085 0 0.163 0.070 0.163 0.163 0 0.085-0.070 0.163-0.163 0.163h-0.139v0.225c0 0.008-0.008 0.023-0.023 0.023-0.008 0-0.023-0.008-0.023-0.023v-0.527h0.008zM10.367 9.91c0.070 0 0.124-0.054 0.124-0.124s-0.054-0.124-0.124-0.124h-0.139v0.248h0.139zM10.987 9.809v0.356c0 0.008-0.008 0.023-0.023 0.023-0.008 0-0.023-0.008-0.023-0.023v-0.062c-0.031 0.046-0.085 0.077-0.147 0.077-0.101 0-0.186-0.093-0.186-0.201s0.085-0.201 0.186-0.201c0.062 0 0.116 0.031 0.147 0.077v-0.062c0-0.008 0.008-0.023 0.023-0.023 0.015 0.023 0.023 0.031 0.023 0.039zM10.948 9.987c0-0.085-0.070-0.163-0.147-0.163s-0.147 0.070-0.147 0.163c0 0.085 0.070 0.163 0.147 0.163s0.147-0.070 0.147-0.163zM11.15 9.809c0-0.008 0.008-0.015 0.015-0.015s0.023 0.008 0.023 0.015v0.217c0 0.070 0.054 0.124 0.124 0.124s0.124-0.054 0.124-0.124v-0.225l0.008-0.008s0.008 0 0.008 0.008l0.008 0.008v0.356c0 0.101-0.085 0.186-0.186 0.186-0.031 0-0.054-0.008-0.085-0.015-0.008-0.008-0.015-0.015-0.008-0.023s0.015-0.015 0.023-0.008c0.023 0.008 0.039 0.015 0.062 0.015 0.085 0 0.147-0.062 0.147-0.147v-0.023c-0.031 0.031-0.070 0.054-0.124 0.054-0.085 0-0.163-0.070-0.163-0.163v-0.232h0.023zM12.219 9.956c0-0.070-0.054-0.124-0.124-0.124s-0.124 0.054-0.124 0.124v0.217c0 0.008-0.008 0.008-0.008 0.008h-0.015v-0.217c0-0.070-0.054-0.124-0.124-0.124s-0.124 0.054-0.124 0.124v0.217c0 0.008 0 0.015-0.008 0.015h-0.008c-0.008 0-0.015-0.008-0.015-0.015v-0.372c0-0.008 0.008-0.015 0.015-0.015s0.023 0.008 0.023 0.015v0.039c0.031-0.031 0.070-0.054 0.124-0.054 0.062 0 0.116 0.031 0.139 0.085 0.031-0.046 0.085-0.085 0.139-0.085 0.085 0 0.163 0.070 0.163 0.163v0.217c0 0.008-0.008 0.015-0.023 0.015-0.008 0-0.015-0.008-0.015-0.015v-0.217h-0.015zM12.397 9.995c0-0.108 0.085-0.201 0.194-0.201 0.101 0 0.186 0.077 0.194 0.186 0 0.008-0.008 0.015-0.023 0.015h-0.325c0.008 0.085 0.070 0.155 0.155 0.155 0.054 0 0.101-0.031 0.124-0.070 0.008-0.008 0.015-0.008 0.023-0.008 0.008 0.008 0.015 0.015 0.008 0.031-0.031 0.054-0.093 0.093-0.163 0.093-0.101-0.008-0.186-0.093-0.186-0.201zM12.436 9.956h0.302c-0.015-0.077-0.077-0.132-0.147-0.132-0.077 0.008-0.139 0.062-0.155 0.132zM13.203 9.956c0-0.070-0.054-0.124-0.124-0.124s-0.124 0.054-0.124 0.124v0.217s0 0.008-0.008 0.008c0 0.008-0.008 0.008-0.015 0.008h-0.008c-0.008 0-0.008-0.008-0.015-0.008v-0.364c0-0.008 0.008-0.023 0.023-0.023 0.008 0 0.015 0.008 0.015 0.023v0.039c0.031-0.031 0.070-0.054 0.124-0.054 0.085 0 0.163 0.070 0.163 0.163v0.217c0 0.008-0.008 0.023-0.023 0.023-0.008 0-0.023-0.008-0.023-0.023v-0.225h0.015zM13.552 9.809c0 0.008-0.008 0.023-0.023 0.023h-0.046v0.287c0 0.023 0.023 0.031 0.031 0.031s0.023 0.008 0.023 0.023c0 0.008-0.008 0.023-0.023 0.023-0.039 0-0.070-0.031-0.070-0.070v-0.287h-0.046c-0.023 0-0.023-0.008-0.023-0.023 0-0.008 0-0.023 0.023-0.023h0.046v-0.147c0-0.008 0.008-0.023 0.023-0.023 0.008 0 0.023 0.008 0.023 0.023v0.147h0.054s0.008 0.008 0.008 0.015zM14.543 9.956c0-0.070-0.054-0.124-0.124-0.124s-0.124 0.054-0.124 0.124v0.217c0 0.008-0.008 0.008-0.008 0.008h-0.015v-0.217c0-0.070-0.054-0.124-0.124-0.124s-0.124 0.054-0.124 0.124v0.217c0 0.008 0 0.015-0.008 0.015h-0.008c-0.008 0-0.015-0.008-0.015-0.015v-0.372c0-0.008 0.008-0.015 0.015-0.015s0.023 0.008 0.023 0.015v0.039c0.031-0.031 0.070-0.054 0.124-0.054 0.062 0 0.116 0.031 0.139 0.085 0.031-0.046 0.085-0.085 0.139-0.085 0.085 0 0.163 0.070 0.163 0.163v0.217c0 0.008-0.008 0.015-0.023 0.015-0.008 0-0.015-0.008-0.015-0.015v-0.217h-0.015zM14.722 9.995c0-0.108 0.085-0.201 0.194-0.201 0.101 0 0.186 0.077 0.194 0.186 0 0.008-0.008 0.015-0.023 0.015h-0.325c0.008 0.085 0.070 0.155 0.155 0.155 0.054 0 0.101-0.031 0.124-0.070 0.008-0.008 0.015-0.008 0.023-0.008 0.008 0.008 0.015 0.015 0.008 0.031-0.031 0.054-0.093 0.093-0.163 0.093-0.101-0.008-0.186-0.093-0.186-0.201zM14.76 9.956h0.302c-0.015-0.077-0.077-0.132-0.147-0.132-0.077 0.008-0.139 0.062-0.155 0.132zM15.349 9.809c0 0.008-0.008 0.023-0.023 0.023h-0.054v0.287c0 0.023 0.023 0.031 0.031 0.031s0.023 0.008 0.023 0.023c0 0.008-0.008 0.023-0.023 0.023-0.039 0-0.070-0.031-0.070-0.070v-0.287h-0.046c-0.023 0-0.023-0.008-0.023-0.023 0-0.008 0-0.023 0.023-0.023h0.046v-0.147c0-0.008 0.008-0.023 0.023-0.023 0.008 0 0.023 0.008 0.023 0.023v0.147h0.054c0.008 0 0.015 0.008 0.015 0.015zM15.806 9.949c0-0.070-0.054-0.116-0.124-0.116s-0.124 0.046-0.124 0.116v0.217c0 0.008-0.008 0.008-0.015 0.008s-0.008 0-0.015-0.008v-0.542c0-0.008 0.008-0.023 0.023-0.023 0.008 0 0.023 0.008 0.023 0.023v0.209c0.031-0.039 0.077-0.062 0.124-0.062 0.093 0 0.163 0.062 0.163 0.155v0.217c0 0.008-0.008 0.023-0.023 0.023-0.008 0-0.015-0.008-0.015-0.023v-0.194h-0.015zM16.186 9.794c0.101 0 0.186 0.093 0.186 0.201s-0.085 0.201-0.186 0.201c-0.101 0-0.186-0.093-0.186-0.201-0.008-0.108 0.077-0.201 0.186-0.201zM16.186 10.15c0.077 0 0.147-0.070 0.147-0.163 0-0.085-0.070-0.163-0.147-0.163s-0.147 0.070-0.147 0.163c-0.008 0.093 0.062 0.163 0.147 0.163zM16.837 10.111c-0.031 0.046-0.093 0.077-0.155 0.077-0.108 0-0.194-0.085-0.194-0.194s0.085-0.201 0.194-0.201c0.062 0 0.116 0.031 0.155 0.077v-0.225c0-0.008 0.008-0.023 0.023-0.023 0.008 0 0.015 0.008 0.015 0.023v0.527c0 0.008-0.008 0.023-0.015 0.023s-0.023-0.008-0.023-0.023v-0.062zM16.837 9.995v-0.015c0-0.085-0.070-0.155-0.155-0.155s-0.155 0.070-0.155 0.163c0 0.085 0.070 0.155 0.155 0.155 0.085 0.008 0.155-0.062 0.155-0.147zM10.336 5.85h-0.17c-0.008 0-0.023-0.008-0.023-0.023 0-0.008 0.008-0.023 0.023-0.023h0.38c0.008 0 0.023 0.008 0.023 0.023 0 0.008-0.008 0.023-0.023 0.023h-0.17v0.504c0 0.008-0.008 0.023-0.023 0.023-0.008 0-0.023-0.008-0.023-0.023v-0.504h0.008zM10.762 5.982c0.101 0 0.186 0.093 0.186 0.201s-0.085 0.201-0.186 0.201c-0.101 0-0.186-0.093-0.186-0.201s0.085-0.201 0.186-0.201zM10.762 6.338c0.077 0 0.147-0.070 0.147-0.163 0-0.085-0.070-0.163-0.147-0.163s-0.147 0.070-0.147 0.163c0 0.093 0.070 0.163 0.147 0.163zM11.227 6.005c0 0.008-0.008 0.023-0.023 0.023h-0.046v0.287c0 0.023 0.023 0.031 0.031 0.031s0.023 0.008 0.023 0.023c0 0.008-0.008 0.023-0.023 0.023-0.039 0-0.070-0.031-0.070-0.070v-0.287h-0.046c-0.023 0-0.023-0.008-0.023-0.023 0-0.008 0-0.023 0.023-0.023h0.046v-0.147c0-0.008 0.008-0.023 0.023-0.023 0.008 0 0.023 0.008 0.023 0.023v0.147h0.054c-0.008-0.008 0.008 0.008 0.008 0.016zM11.715 6.005v0.356c0 0.008-0.008 0.023-0.023 0.023-0.008 0-0.023-0.008-0.023-0.023v-0.062c-0.031 0.046-0.085 0.077-0.147 0.077-0.101 0-0.186-0.093-0.186-0.201s0.085-0.201 0.186-0.201c0.062 0 0.116 0.031 0.147 0.077v-0.062c0-0.008 0.008-0.023 0.023-0.023 0.015 0.016 0.023 0.023 0.023 0.039zM11.677 6.183c0-0.085-0.070-0.163-0.147-0.163s-0.147 0.070-0.147 0.163c0 0.085 0.070 0.163 0.147 0.163 0.085-0.008 0.147-0.077 0.147-0.163zM11.901 5.834c0-0.008 0.008-0.023 0.023-0.023 0.008 0 0.023 0.008 0.023 0.023v0.527c0 0.008-0.008 0.023-0.023 0.023-0.008 0-0.023-0.008-0.023-0.023v-0.527zM12.343 6.191v-0.186c0-0.008 0.008-0.023 0.023-0.023 0.008 0 0.023 0.008 0.023 0.023v0.054c0.031-0.046 0.085-0.077 0.147-0.077 0.108 0 0.194 0.085 0.194 0.194s-0.085 0.194-0.194 0.194c-0.062 0-0.116-0.031-0.147-0.077v0.225c0 0.008-0.008 0.023-0.023 0.023-0.008 0-0.023-0.008-0.023-0.023v-0.325zM12.382 6.183c0 0.085 0.070 0.155 0.147 0.155 0.085 0 0.155-0.070 0.155-0.155s-0.070-0.155-0.155-0.155c-0.077-0.008-0.139 0.062-0.147 0.155zM12.877 6.005c0-0.008 0.008-0.023 0.023-0.023 0.008 0 0.015 0.008 0.015 0.023v0.085s0-0.008 0.008-0.008c0.031-0.046 0.085-0.101 0.155-0.101 0.008 0 0.023 0.008 0.023 0.023 0 0.008-0.008 0.023-0.023 0.023-0.054 0-0.085 0.031-0.116 0.062-0.023 0.039-0.039 0.077-0.046 0.093v0.178c0 0.008-0.008 0.023-0.015 0.023s-0.023-0.008-0.023-0.023v-0.356zM13.234 5.873c0-0.008 0.008-0.023 0.023-0.023 0.008 0 0.023 0.008 0.023 0.023v0.016c0 0.008-0.008 0.023-0.023 0.023-0.008 0-0.023-0.008-0.023-0.023v-0.016zM13.234 6.005c0-0.008 0.008-0.023 0.023-0.023 0.008 0 0.023 0.008 0.023 0.023v0.356c0 0.008-0.008 0.023-0.023 0.023-0.008 0-0.023-0.008-0.023-0.023v-0.356zM13.428 6.183c0-0.108 0.093-0.194 0.201-0.194 0.046 0 0.093 0.016 0.124 0.046 0.008 0.008 0.008 0.016 0 0.023s-0.015 0.008-0.023 0c-0.031-0.023-0.062-0.039-0.101-0.039-0.093 0-0.163 0.070-0.163 0.163 0 0.085 0.070 0.163 0.163 0.163 0.039 0 0.077-0.016 0.101-0.031 0.008-0.008 0.023-0.008 0.023 0 0.008 0.008 0.008 0.023-0.008 0.031-0.031 0.023-0.077 0.039-0.124 0.039-0.101-0.008-0.194-0.093-0.194-0.201zM13.885 6.183c0-0.108 0.085-0.201 0.194-0.201 0.101 0 0.186 0.077 0.194 0.186 0 0.008-0.008 0.016-0.023 0.016h-0.325c0.008 0.085 0.070 0.155 0.155 0.155 0.054 0 0.101-0.031 0.124-0.070 0.008-0.008 0.015-0.008 0.023-0.008 0.008 0.008 0.015 0.016 0.008 0.031-0.031 0.054-0.093 0.093-0.163 0.093-0.101-0.008-0.186-0.093-0.186-0.201zM13.924 6.152h0.302c-0.015-0.077-0.077-0.132-0.147-0.132-0.077 0-0.139 0.054-0.155 0.132z"></path>
<path fill="#24cca7" style="fill: var(--color6, #24cca7)" d="M10.654 6.904c0.039 0 0.070 0.031 0.070 0.070v0.039c0.093 0.008 0.178 0.039 0.248 0.085 0.023 0.016 0.046 0.039 0.046 0.077 0 0.046-0.039 0.085-0.093 0.085-0.015 0-0.031-0.008-0.046-0.016-0.054-0.031-0.108-0.062-0.17-0.070v0.31c0.248 0.062 0.349 0.163 0.349 0.333 0 0.178-0.139 0.294-0.349 0.318v0.101c0 0.039-0.031 0.070-0.070 0.070s-0.070-0.031-0.070-0.070v-0.101c-0.124-0.015-0.232-0.054-0.333-0.124-0.031-0.016-0.046-0.046-0.046-0.077 0-0.046 0.039-0.085 0.085-0.085 0.023 0 0.039 0.008 0.054 0.016 0.077 0.054 0.147 0.093 0.24 0.108v-0.318c-0.24-0.062-0.349-0.147-0.349-0.333 0-0.17 0.139-0.294 0.341-0.31v-0.039c0.023-0.039 0.054-0.070 0.093-0.070zM10.584 7.454v-0.287c-0.101 0.008-0.155 0.062-0.155 0.139 0 0.070 0.031 0.108 0.155 0.147zM10.716 7.678v0.294c0.101-0.008 0.163-0.062 0.163-0.139 0-0.070-0.039-0.116-0.163-0.155zM11.994 7.756c0 0.209-0.17 0.387-0.387 0.387s-0.387-0.17-0.387-0.387c0-0.132 0.070-0.256 0.17-0.325-0.031-0.046-0.054-0.101-0.054-0.163 0-0.147 0.116-0.263 0.271-0.263 0.147 0 0.263 0.116 0.263 0.263 0 0.062-0.023 0.116-0.054 0.163 0.108 0.070 0.178 0.186 0.178 0.325zM11.816 7.756c0-0.116-0.093-0.209-0.209-0.209s-0.209 0.093-0.209 0.209c0 0.116 0.093 0.209 0.209 0.209s0.209-0.101 0.209-0.209zM11.514 7.268c0 0.046 0.039 0.093 0.093 0.093 0.046 0 0.085-0.039 0.085-0.093 0-0.046-0.039-0.085-0.085-0.085-0.054 0-0.093 0.039-0.093 0.085zM12.25 7.4c0-0.217 0.178-0.395 0.395-0.395 0.201 0 0.372 0.155 0.387 0.349v0.093c0 0.108-0.015 0.225-0.054 0.333s-0.108 0.209-0.209 0.279c-0.070 0.046-0.147 0.070-0.24 0.077-0.046 0-0.093-0.039-0.093-0.085s0.039-0.085 0.085-0.093c0.062 0 0.108-0.023 0.155-0.046 0.039-0.031 0.077-0.062 0.101-0.116 0.008-0.016 0.015-0.031 0.023-0.039-0.046 0.023-0.101 0.031-0.155 0.031-0.225 0-0.395-0.17-0.395-0.387zM12.428 7.4c0 0.116 0.093 0.217 0.217 0.217 0.116 0 0.209-0.101 0.209-0.217s-0.093-0.209-0.209-0.209c-0.124-0.008-0.217 0.085-0.217 0.209zM13.288 8.283c0.077-0.023 0.116-0.077 0.108-0.147-0.046-0.015-0.093-0.054-0.093-0.108v-0.015c0-0.062 0.046-0.108 0.108-0.108 0.070 0 0.116 0.054 0.116 0.139v0.015c0 0.108-0.031 0.186-0.077 0.24-0.046 0.039-0.108 0.070-0.155 0.070-0.031 0-0.046-0.023-0.046-0.046 0-0.015 0.015-0.031 0.039-0.039zM13.645 7.4c0-0.217 0.178-0.395 0.395-0.395 0.201 0 0.372 0.155 0.387 0.349v0.093c0 0.108-0.015 0.225-0.054 0.333s-0.108 0.209-0.209 0.279c-0.070 0.046-0.147 0.070-0.24 0.077-0.046 0-0.093-0.039-0.093-0.085s0.039-0.085 0.085-0.093c0.062 0 0.108-0.023 0.155-0.046 0.039-0.031 0.077-0.062 0.101-0.116 0.008-0.016 0.015-0.031 0.023-0.039-0.046 0.023-0.101 0.031-0.155 0.031-0.217 0-0.395-0.17-0.395-0.387zM13.823 7.4c0 0.116 0.093 0.217 0.217 0.217 0.116 0 0.209-0.101 0.209-0.217s-0.093-0.209-0.209-0.209c-0.124-0.008-0.217 0.085-0.217 0.209zM14.683 7.4c0-0.217 0.178-0.395 0.395-0.395 0.201 0 0.372 0.155 0.387 0.349v0.093c0 0.108-0.015 0.225-0.054 0.333s-0.108 0.209-0.209 0.279c-0.070 0.046-0.147 0.070-0.24 0.077-0.046 0-0.093-0.039-0.093-0.085s0.039-0.085 0.085-0.093c0.062 0 0.108-0.023 0.155-0.046 0.039-0.031 0.077-0.062 0.101-0.116 0.008-0.016 0.015-0.031 0.023-0.039-0.046 0.023-0.101 0.031-0.155 0.031-0.217 0-0.395-0.17-0.395-0.387zM14.861 7.4c0 0.116 0.093 0.217 0.217 0.217 0.116 0 0.209-0.101 0.209-0.217s-0.093-0.209-0.209-0.209c-0.124-0.008-0.217 0.085-0.217 0.209z"></path>
<path fill="#263238" style="fill: var(--color7, #263238)" d="M12.932 3.673c0-0.008 0.008-0.023 0.023-0.023h0.155c0.085 0 0.163 0.070 0.163 0.163 0 0.085-0.070 0.163-0.163 0.163h-0.139v0.225c0 0.008-0.008 0.023-0.023 0.023-0.008 0-0.023-0.008-0.023-0.023v-0.527h0.008zM13.11 3.944c0.070 0 0.124-0.054 0.124-0.124s-0.054-0.124-0.124-0.124h-0.139v0.248h0.139zM13.722 3.843v0.356c0 0.008-0.008 0.023-0.023 0.023-0.008 0-0.023-0.008-0.023-0.023v-0.062c-0.031 0.046-0.085 0.077-0.147 0.077-0.101 0-0.186-0.093-0.186-0.201s0.085-0.201 0.186-0.201c0.062 0 0.116 0.031 0.147 0.077v-0.062c0-0.008 0.008-0.023 0.023-0.023 0.015 0.023 0.023 0.031 0.023 0.039zM13.683 4.021c0-0.085-0.070-0.163-0.147-0.163s-0.147 0.070-0.147 0.163c0 0.085 0.070 0.163 0.147 0.163 0.085 0 0.147-0.070 0.147-0.163zM13.885 3.843c0-0.008 0.008-0.015 0.015-0.015s0.023 0.008 0.023 0.015v0.217c0 0.070 0.054 0.124 0.124 0.124s0.124-0.054 0.124-0.124v-0.225l0.008-0.008s0.008 0 0.008 0.008l0.008 0.008v0.356c0 0.101-0.085 0.186-0.186 0.186-0.031 0-0.054-0.008-0.085-0.016-0.008-0.008-0.015-0.016-0.008-0.023s0.015-0.016 0.023-0.008c0.023 0.008 0.039 0.016 0.062 0.016 0.085 0 0.147-0.062 0.147-0.147v-0.023c-0.031 0.031-0.070 0.054-0.124 0.054-0.085 0-0.163-0.070-0.163-0.163v-0.232h0.023zM14.962 3.99c0-0.070-0.054-0.124-0.124-0.124s-0.124 0.054-0.124 0.124v0.217c0 0.008-0.008 0.008-0.008 0.008h-0.015v-0.217c0-0.070-0.054-0.124-0.124-0.124s-0.124 0.054-0.124 0.124v0.217c0 0.008 0 0.016-0.008 0.016h-0.008c-0.008 0-0.015-0.008-0.015-0.016v-0.372c0-0.008 0.008-0.015 0.015-0.015s0.023 0.008 0.023 0.015v0.039c0.031-0.031 0.070-0.054 0.124-0.054 0.062 0 0.116 0.031 0.139 0.085 0.031-0.046 0.085-0.085 0.139-0.085 0.085 0 0.163 0.070 0.163 0.163v0.217c0 0.008-0.008 0.016-0.023 0.016-0.008 0-0.015-0.008-0.015-0.016v-0.217h-0.015zM15.132 4.021c0-0.108 0.085-0.201 0.194-0.201 0.101 0 0.186 0.077 0.194 0.186 0 0.008-0.008 0.016-0.023 0.016h-0.325c0.008 0.085 0.070 0.155 0.155 0.155 0.054 0 0.101-0.031 0.124-0.070 0.008-0.008 0.015-0.008 0.023-0.008 0.008 0.008 0.015 0.016 0.008 0.031-0.031 0.054-0.093 0.093-0.163 0.093-0.101 0-0.186-0.093-0.186-0.201zM15.179 3.99h0.302c-0.015-0.077-0.077-0.132-0.147-0.132-0.077 0.008-0.139 0.062-0.155 0.132zM15.938 3.99c0-0.070-0.054-0.124-0.124-0.124s-0.124 0.054-0.124 0.124v0.217s0 0.008-0.008 0.008c0 0.008-0.008 0.008-0.015 0.008h-0.008c-0.008 0-0.008-0.008-0.015-0.008v-0.364c0-0.008 0.008-0.023 0.023-0.023 0.008 0 0.015 0.008 0.015 0.023v0.039c0.031-0.031 0.070-0.054 0.124-0.054 0.085 0 0.163 0.070 0.163 0.163v0.217c0 0.008-0.008 0.023-0.023 0.023-0.008 0-0.015-0.008-0.015-0.023v-0.225h0.008zM16.294 3.843c0 0.008-0.008 0.023-0.023 0.023h-0.054v0.287c0 0.023 0.023 0.031 0.031 0.031s0.023 0.008 0.023 0.023c0 0.008-0.008 0.023-0.023 0.023-0.039 0-0.070-0.031-0.070-0.070v-0.287h-0.047c-0.015 0-0.015-0.008-0.015-0.023 0-0.008 0-0.023 0.015-0.023h0.047v-0.147c0-0.008 0.008-0.023 0.015-0.023s0.023 0.008 0.023 0.023v0.147h0.054c0.008 0 0.023 0.008 0.023 0.015zM16.752 4.223c-0.015 0-0.023-0.008-0.023-0.023v-0.527c0-0.008 0.008-0.023 0.023-0.023h0.101c0.155 0 0.287 0.124 0.287 0.287 0 0.155-0.124 0.279-0.287 0.279h-0.101v0.008zM16.852 4.184c0.132 0 0.24-0.108 0.24-0.24s-0.108-0.24-0.24-0.248h-0.085v0.488h0.085zM17.557 3.843v0.356c0 0.008-0.008 0.023-0.015 0.023s-0.023-0.008-0.023-0.023v-0.062c-0.031 0.046-0.085 0.077-0.147 0.077-0.101 0-0.186-0.093-0.186-0.201s0.085-0.201 0.186-0.201c0.062 0 0.116 0.031 0.147 0.077v-0.062c0-0.008 0.008-0.023 0.023-0.023 0.008 0.023 0.015 0.031 0.015 0.039zM17.519 4.021c0-0.085-0.070-0.163-0.147-0.163s-0.147 0.070-0.147 0.163c0 0.085 0.070 0.163 0.147 0.163 0.085 0 0.147-0.070 0.147-0.163zM17.867 3.843c0 0.008-0.008 0.023-0.023 0.023h-0.054v0.287c0 0.023 0.023 0.031 0.031 0.031s0.023 0.008 0.023 0.023c0 0.008-0.008 0.023-0.023 0.023-0.039 0-0.070-0.031-0.070-0.070v-0.287h-0.047c-0.015 0-0.015-0.008-0.015-0.023 0-0.008 0-0.023 0.015-0.023h0.047v-0.147c0-0.008 0.008-0.023 0.015-0.023s0.023 0.008 0.023 0.023v0.147h0.054c0.015 0 0.023 0.008 0.023 0.015zM18.363 3.843v0.356c0 0.008-0.008 0.023-0.023 0.023-0.008 0-0.015-0.008-0.015-0.023v-0.062c-0.031 0.046-0.085 0.077-0.147 0.077-0.101 0-0.186-0.093-0.186-0.201s0.085-0.201 0.186-0.201c0.062 0 0.116 0.031 0.147 0.077v-0.062c0-0.008 0.008-0.023 0.015-0.023 0.015 0.023 0.023 0.031 0.023 0.039zM18.324 4.021c0-0.085-0.070-0.163-0.147-0.163s-0.147 0.070-0.147 0.163c0 0.085 0.070 0.163 0.147 0.163s0.147-0.070 0.147-0.163z"></path>
<path fill="#4a56e2" style="fill: var(--color1, #4a56e2)" d="M10.545 4.169l-0.271-0.248 0.271-0.248 0.054 0.054-0.201 0.194 0.201 0.194-0.054 0.054z"></path>
<path fill="#4a56e2" style="fill: var(--color1, #4a56e2)" d="M10.499 4.354c-0.24 0-0.434-0.194-0.434-0.434s0.194-0.434 0.434-0.434c0.24 0 0.434 0.194 0.434 0.434s-0.194 0.434-0.434 0.434zM10.499 3.564c-0.194 0-0.356 0.155-0.356 0.356 0 0.194 0.155 0.356 0.356 0.356 0.194 0 0.356-0.155 0.356-0.356 0-0.194-0.163-0.356-0.356-0.356z"></path>
<path fill="#ffc727" style="fill: var(--color3, #ffc727)" d="M20.812 19.099c0.484 0 0.876-0.392 0.876-0.876s-0.392-0.876-0.876-0.876c-0.484 0-0.876 0.392-0.876 0.876s0.392 0.876 0.876 0.876z"></path>
<path fill="#fff" style="fill: var(--color4, #fff)" d="M20.556 18.782l-0.325-0.504 0.139-0.093 0.201 0.325 0.643-0.806 0.124 0.101-0.783 0.976z"></path>
<path fill="#4a56e2" style="fill: var(--color1, #4a56e2)" d="M15.907 19.138c0 0.139-0.116 0.256-0.256 0.256s-0.256-0.116-0.256-0.256c0-0.139 0.116-0.256 0.256-0.256s0.256 0.116 0.256 0.256z"></path>
<path fill="#ebebeb" style="fill: var(--color13, #ebebeb)" d="M14.466 19.138c0 0.101-0.085 0.186-0.186 0.186s-0.186-0.085-0.186-0.186c0-0.101 0.085-0.186 0.186-0.186s0.186 0.085 0.186 0.186zM17.216 19.138c0 0.101-0.085 0.186-0.186 0.186s-0.186-0.085-0.186-0.186c0-0.101 0.085-0.186 0.186-0.186s0.186 0.085 0.186 0.186z"></path>
<path fill="#263238" style="fill: var(--color7, #263238)" d="M10.166 20.936c0.008-0.008 0.015-0.008 0.023 0 0.039 0.031 0.116 0.077 0.186 0.070 0.046 0 0.093-0.015 0.124-0.039s0.046-0.054 0.046-0.085c0-0.031-0.015-0.054-0.046-0.077s-0.077-0.039-0.132-0.047c-0.054-0.008-0.101-0.023-0.132-0.047s-0.062-0.054-0.062-0.101c0-0.047 0.023-0.077 0.062-0.108 0.039-0.023 0.085-0.039 0.139-0.039 0.077 0 0.132 0.039 0.178 0.062 0.008 0.008 0.008 0.015 0.008 0.023-0.008 0.008-0.015 0.008-0.023 0.008-0.046-0.031-0.093-0.062-0.155-0.062-0.046 0-0.085 0.015-0.116 0.031-0.031 0.023-0.046 0.047-0.046 0.077s0.015 0.047 0.039 0.070c0.031 0.023 0.070 0.031 0.124 0.047 0.054 0.008 0.108 0.023 0.147 0.054 0.039 0.023 0.062 0.062 0.062 0.108s-0.023 0.085-0.062 0.116c-0.039 0.031-0.085 0.047-0.147 0.047-0.085 0-0.163-0.047-0.209-0.085-0.015 0-0.015-0.015-0.008-0.023zM11.057 20.672v0.356c0 0.008-0.008 0.023-0.023 0.023-0.008 0-0.023-0.008-0.023-0.023v-0.062c-0.031 0.047-0.085 0.077-0.147 0.077-0.101 0-0.186-0.093-0.186-0.201s0.085-0.201 0.186-0.201c0.062 0 0.116 0.031 0.147 0.077v-0.062c0-0.008 0.008-0.023 0.023-0.023 0.008 0.015 0.023 0.023 0.023 0.039zM11.018 20.85c0-0.085-0.070-0.163-0.147-0.163s-0.147 0.070-0.147 0.163c0 0.085 0.070 0.163 0.147 0.163 0.077-0.008 0.147-0.077 0.147-0.163zM11.336 21.044l-0.008-0.008-0.147-0.356c-0.008-0.008 0-0.023 0.008-0.023 0.008-0.008 0.023 0 0.023 0.008l0.132 0.31 0.132-0.31c0-0.008 0.015-0.015 0.023-0.008s0.015 0.015 0.008 0.023l-0.147 0.349s0 0.008-0.008 0.008c0 0.008-0.008 0.008-0.015 0.008 0.008 0 0.008 0 0 0zM11.622 20.85c0-0.108 0.085-0.201 0.194-0.201 0.101 0 0.186 0.077 0.194 0.186 0 0.008-0.008 0.015-0.023 0.015h-0.325c0.008 0.085 0.070 0.155 0.155 0.155 0.054 0 0.101-0.031 0.124-0.070 0.008-0.008 0.015-0.008 0.023-0.008 0.008 0.008 0.015 0.015 0.008 0.031-0.031 0.054-0.093 0.093-0.163 0.093-0.101-0.008-0.186-0.093-0.186-0.201zM11.669 20.819h0.302c-0.015-0.077-0.077-0.132-0.147-0.132-0.085 0-0.147 0.054-0.155 0.132zM12.358 20.843c0-0.108 0.093-0.194 0.201-0.194 0.046 0 0.093 0.015 0.124 0.047 0.008 0.008 0.008 0.015 0 0.023s-0.015 0.008-0.023 0c-0.031-0.023-0.062-0.039-0.101-0.039-0.093 0-0.163 0.070-0.163 0.163 0 0.085 0.070 0.163 0.163 0.163 0.039 0 0.077-0.015 0.101-0.031 0.008-0.008 0.023-0.008 0.023 0 0.008 0.008 0.008 0.023-0.008 0.031-0.031 0.023-0.077 0.039-0.124 0.039-0.101 0-0.194-0.085-0.194-0.201zM13.18 20.672v0.356c0 0.008-0.008 0.023-0.023 0.023-0.008 0-0.023-0.008-0.023-0.023v-0.062c-0.031 0.047-0.085 0.077-0.147 0.077-0.101 0-0.186-0.093-0.186-0.201s0.085-0.201 0.186-0.201c0.062 0 0.116 0.031 0.147 0.077v-0.062c0-0.008 0.008-0.023 0.023-0.023 0.015 0.015 0.023 0.023 0.023 0.039zM13.141 20.85c0-0.085-0.070-0.163-0.147-0.163s-0.147 0.070-0.147 0.163c0 0.085 0.070 0.163 0.147 0.163 0.085-0.008 0.147-0.077 0.147-0.163zM13.35 20.672c0-0.008 0.008-0.023 0.023-0.023 0.008 0 0.015 0.008 0.015 0.023v0.085s0-0.008 0.008-0.008c0.031-0.047 0.085-0.101 0.155-0.101 0.008 0 0.023 0.008 0.023 0.023 0 0.008-0.008 0.015-0.023 0.015-0.054 0-0.085 0.031-0.116 0.062-0.023 0.039-0.039 0.077-0.046 0.093v0.178c0 0.008-0.008 0.023-0.015 0.023s-0.023-0.008-0.023-0.023v-0.349zM14.001 20.967c-0.031 0.047-0.093 0.077-0.155 0.077-0.108 0-0.194-0.085-0.194-0.194s0.085-0.201 0.194-0.201c0.062 0 0.116 0.031 0.155 0.077v-0.225c0-0.008 0.008-0.015 0.023-0.015 0.008 0 0.023 0.008 0.023 0.015v0.527c0 0.008-0.008 0.023-0.023 0.023-0.008 0-0.023-0.008-0.023-0.023v-0.062zM14.001 20.858v-0.015c0-0.085-0.070-0.155-0.155-0.155s-0.155 0.070-0.155 0.163c0 0.085 0.070 0.155 0.155 0.155s0.155-0.070 0.155-0.147zM14.745 20.812c0-0.070-0.054-0.124-0.124-0.124s-0.124 0.054-0.124 0.124v0.217s0 0.008-0.008 0.008c0 0.008-0.008 0.008-0.015 0.008h-0.008c-0.008 0-0.008-0.008-0.015-0.008v-0.364c0-0.008 0.008-0.023 0.023-0.023 0.008 0 0.015 0.008 0.015 0.023v0.039c0.031-0.031 0.070-0.054 0.124-0.054 0.085 0 0.163 0.070 0.163 0.163v0.217c0 0.008-0.008 0.023-0.023 0.023-0.008 0-0.023-0.008-0.023-0.023v-0.225h0.015zM14.954 20.664c0-0.008 0.008-0.015 0.023-0.015 0.008 0 0.023 0.008 0.023 0.015v0.217c0 0.070 0.054 0.124 0.124 0.124s0.124-0.054 0.124-0.124v-0.217c0-0.008 0.008-0.015 0.023-0.015 0.008 0 0.023 0.008 0.023 0.015v0.217c0 0.085-0.070 0.163-0.163 0.163-0.085 0-0.163-0.070-0.163-0.163v-0.217h-0.015zM16.023 20.812c0-0.070-0.054-0.124-0.124-0.124s-0.124 0.054-0.124 0.124v0.217c0 0.008-0.008 0.008-0.008 0.008h-0.015v-0.217c0-0.070-0.054-0.124-0.124-0.124s-0.124 0.054-0.124 0.124v0.217c0 0.008 0 0.015-0.008 0.015h-0.008c-0.008 0-0.015-0.008-0.015-0.015v-0.372c0-0.008 0.008-0.015 0.015-0.015s0.023 0.008 0.023 0.015v0.039c0.031-0.031 0.070-0.054 0.124-0.054 0.062 0 0.116 0.031 0.139 0.085 0.031-0.047 0.085-0.085 0.139-0.085 0.085 0 0.163 0.070 0.163 0.163v0.217c0 0.008-0.008 0.015-0.023 0.015-0.008 0-0.015-0.008-0.015-0.015v-0.217h-0.015zM16.225 20.858v-0.356c0-0.008 0.008-0.015 0.015-0.015s0.023 0.008 0.023 0.015v0.225c0.031-0.047 0.093-0.077 0.155-0.077 0.108 0 0.194 0.085 0.194 0.201 0 0.108-0.085 0.194-0.194 0.194-0.062 0-0.116-0.031-0.155-0.077v0.054c0 0.008-0.008 0.023-0.023 0.023-0.008 0-0.015-0.008-0.015-0.023v-0.163zM16.263 20.85c0 0.085 0.070 0.155 0.155 0.155s0.155-0.070 0.155-0.155-0.070-0.163-0.155-0.163-0.147 0.070-0.155 0.163zM16.728 20.85c0-0.108 0.085-0.201 0.194-0.201 0.101 0 0.186 0.077 0.194 0.186 0 0.008-0.008 0.015-0.023 0.015h-0.325c0.008 0.085 0.070 0.155 0.155 0.155 0.054 0 0.101-0.031 0.124-0.070 0.008-0.008 0.015-0.008 0.023-0.008 0.008 0.008 0.015 0.015 0.008 0.031-0.031 0.054-0.093 0.093-0.163 0.093-0.101-0.008-0.186-0.093-0.186-0.201zM16.775 20.819h0.302c-0.015-0.077-0.077-0.132-0.147-0.132-0.077 0-0.139 0.054-0.155 0.132zM17.232 20.672c0-0.008 0.008-0.023 0.023-0.023 0.008 0 0.015 0.008 0.015 0.023v0.085s0-0.008 0.008-0.008c0.031-0.047 0.085-0.101 0.155-0.101 0.008 0 0.015 0.008 0.015 0.023 0 0.008-0.008 0.015-0.015 0.015-0.054 0-0.085 0.031-0.116 0.062-0.023 0.039-0.039 0.077-0.047 0.093v0.178c0 0.008-0.008 0.023-0.015 0.023s-0.023-0.008-0.023-0.023v-0.349z"></path>
<path fill="#4a56e2" style="fill: var(--color1, #4a56e2)" opacity="0.5" d="M20.641 21.191h-1.085c-0.217 0-0.403-0.178-0.403-0.403v-0.039c0-0.217 0.178-0.403 0.403-0.403h1.085c0.217 0 0.403 0.178 0.403 0.403v0.039c-0.008 0.225-0.186 0.403-0.403 0.403z"></path>
<path fill="#4a56e2" style="fill: var(--color1, #4a56e2)" d="M20.967 20.773c0 0.194-0.155 0.356-0.356 0.356-0.194 0-0.356-0.155-0.356-0.356 0-0.194 0.155-0.356 0.356-0.356s0.356 0.163 0.356 0.356z"></path>
<path fill="#24cca7" style="fill: var(--color6, #24cca7)" d="M19.727 23.144h-8.151c-0.257 0-0.465 0.208-0.465 0.465v0 0.814c0 0.257 0.208 0.465 0.465 0.465v0h8.151c0.257 0 0.465-0.208 0.465-0.465v0-0.814c0-0.257-0.208-0.465-0.465-0.465v0z"></path>
<path fill="#fff" style="fill: var(--color4, #fff)" d="M11.893 23.686c0-0.008 0.008-0.023 0.023-0.023h0.155c0.085 0 0.163 0.070 0.163 0.163s-0.070 0.163-0.163 0.163h-0.139v0.225c0 0.008-0.008 0.015-0.023 0.015-0.008 0-0.023-0.008-0.023-0.015v-0.527h0.008zM12.072 23.95c0.070 0 0.124-0.054 0.124-0.124s-0.054-0.124-0.124-0.124h-0.139v0.248h0.139zM12.358 23.857c0-0.008 0.008-0.015 0.023-0.015 0.008 0 0.015 0.008 0.015 0.015v0.085s0-0.008 0.008-0.008c0.031-0.047 0.085-0.101 0.155-0.101 0.008 0 0.023 0.008 0.023 0.015s-0.008 0.023-0.023 0.023c-0.054 0-0.085 0.031-0.116 0.062-0.023 0.039-0.039 0.077-0.046 0.093v0.178c0 0.008-0.008 0.015-0.015 0.015s-0.023-0.008-0.023-0.015v-0.349zM12.862 23.833c0.101 0 0.186 0.093 0.186 0.201s-0.085 0.201-0.186 0.201c-0.101 0-0.186-0.093-0.186-0.201-0.008-0.108 0.077-0.201 0.186-0.201zM12.862 24.19c0.077 0 0.147-0.070 0.147-0.163 0-0.085-0.070-0.163-0.147-0.163s-0.147 0.070-0.147 0.163c0 0.093 0.062 0.163 0.147 0.163zM13.172 24.035c0-0.108 0.093-0.194 0.201-0.194 0.046 0 0.093 0.015 0.124 0.047 0.008 0.008 0.008 0.015 0 0.023s-0.015 0.008-0.023 0c-0.031-0.023-0.062-0.039-0.101-0.039-0.093 0-0.163 0.070-0.163 0.163 0 0.085 0.070 0.163 0.163 0.163 0.039 0 0.077-0.015 0.101-0.031 0.008-0.008 0.023-0.008 0.023 0 0.008 0.008 0.008 0.023-0.008 0.031-0.031 0.023-0.077 0.039-0.124 0.039-0.108-0.008-0.194-0.093-0.194-0.201zM13.621 24.035c0-0.108 0.085-0.201 0.194-0.201 0.101 0 0.186 0.077 0.194 0.186 0 0.008-0.008 0.015-0.023 0.015h-0.325c0.008 0.085 0.070 0.155 0.155 0.155 0.054 0 0.101-0.031 0.124-0.070 0.008-0.008 0.015-0.008 0.023-0.008 0.008 0.008 0.015 0.015 0.008 0.031-0.031 0.054-0.093 0.093-0.163 0.093-0.101-0.008-0.186-0.093-0.186-0.201zM13.66 24.004h0.302c-0.015-0.077-0.077-0.132-0.147-0.132-0.077 0-0.139 0.054-0.155 0.132zM14.109 24.035c0-0.108 0.085-0.201 0.194-0.201 0.101 0 0.186 0.077 0.194 0.186 0 0.008-0.008 0.015-0.023 0.015h-0.325c0.008 0.085 0.070 0.155 0.155 0.155 0.054 0 0.101-0.031 0.124-0.070 0.008-0.008 0.015-0.008 0.023-0.008 0.008 0.008 0.015 0.015 0.008 0.031-0.031 0.054-0.093 0.093-0.163 0.093-0.101-0.008-0.186-0.093-0.186-0.201zM14.156 24.004h0.302c-0.015-0.077-0.077-0.132-0.147-0.132-0.085 0-0.147 0.054-0.155 0.132zM14.946 24.151c-0.031 0.047-0.093 0.077-0.155 0.077-0.108 0-0.194-0.085-0.194-0.194s0.085-0.201 0.194-0.201c0.062 0 0.116 0.031 0.155 0.077v-0.225c0-0.008 0.008-0.023 0.023-0.023 0.008 0 0.023 0.008 0.023 0.023v0.527c0 0.008-0.008 0.015-0.023 0.015-0.008 0-0.023-0.008-0.023-0.015v-0.062zM14.946 24.043v-0.015c0-0.085-0.070-0.155-0.155-0.155s-0.155 0.070-0.155 0.163c0 0.085 0.070 0.155 0.155 0.155s0.155-0.070 0.155-0.147zM15.551 23.857c0 0.008-0.008 0.023-0.023 0.023h-0.054v0.287c0 0.023 0.023 0.031 0.031 0.031s0.023 0.008 0.023 0.023c0 0.008-0.008 0.015-0.023 0.015-0.039 0-0.070-0.031-0.070-0.070v-0.287h-0.046c-0.023 0-0.023-0.008-0.023-0.023 0-0.008 0-0.023 0.023-0.023h0.046v-0.147c0-0.008 0.008-0.023 0.023-0.023 0.008 0 0.023 0.008 0.023 0.023v0.147h0.054s0.015 0.008 0.015 0.023zM15.892 23.833c0.101 0 0.186 0.093 0.186 0.201s-0.085 0.201-0.186 0.201c-0.101 0-0.186-0.093-0.186-0.201s0.077-0.201 0.186-0.201zM15.892 24.19c0.077 0 0.147-0.070 0.147-0.163 0-0.085-0.070-0.163-0.147-0.163s-0.147 0.070-0.147 0.163c0 0.093 0.062 0.163 0.147 0.163zM16.442 24.035c0-0.108 0.093-0.194 0.201-0.194 0.047 0 0.093 0.015 0.124 0.047 0.008 0.008 0.008 0.015 0 0.023s-0.015 0.008-0.023 0c-0.031-0.023-0.062-0.039-0.101-0.039-0.093 0-0.163 0.070-0.163 0.163 0 0.085 0.070 0.163 0.163 0.163 0.039 0 0.077-0.015 0.101-0.031 0.008-0.008 0.023-0.008 0.023 0 0.008 0.008 0.008 0.023-0.008 0.031-0.031 0.023-0.077 0.039-0.124 0.039-0.101-0.008-0.194-0.093-0.194-0.201zM17.085 23.833c0.101 0 0.186 0.093 0.186 0.201s-0.085 0.201-0.186 0.201c-0.101 0-0.186-0.093-0.186-0.201s0.085-0.201 0.186-0.201zM17.085 24.19c0.077 0 0.147-0.070 0.147-0.163 0-0.085-0.070-0.163-0.147-0.163s-0.147 0.070-0.147 0.163c0 0.093 0.070 0.163 0.147 0.163zM17.705 23.996c0-0.070-0.054-0.124-0.124-0.124s-0.124 0.054-0.124 0.124v0.217s0 0.008-0.008 0.008c0 0.008-0.008 0.008-0.015 0.008h-0.008c-0.008 0-0.008-0.008-0.015-0.008v-0.364c0-0.008 0.008-0.015 0.015-0.015s0.015 0.008 0.015 0.015v0.039c0.031-0.031 0.070-0.054 0.124-0.054 0.085 0 0.163 0.070 0.163 0.163v0.217c0 0.008-0.008 0.015-0.023 0.015-0.008 0-0.015-0.008-0.015-0.015v-0.225h0.015zM18.092 23.686c0 0.008-0.008 0.023-0.015 0.023-0.031 0-0.039 0.008-0.047 0.015s-0.015 0.031-0.015 0.062v0.039h0.054c0.008 0 0.023 0.008 0.023 0.015s-0.008 0.023-0.023 0.023h-0.054v0.341c0 0.008-0.008 0.015-0.023 0.015-0.008 0-0.023-0.008-0.023-0.015v-0.341h-0.054c-0.008 0-0.023-0.008-0.023-0.023 0-0.008 0.008-0.015 0.023-0.015h0.054v-0.039c0-0.039 0.008-0.070 0.023-0.093s0.047-0.031 0.077-0.031c0.015 0 0.023 0.008 0.023 0.023zM18.216 23.725c0-0.008 0.008-0.023 0.023-0.023 0.008 0 0.023 0.008 0.023 0.023v0.015c0 0.008-0.008 0.023-0.023 0.023-0.008 0-0.023-0.008-0.023-0.023v-0.015zM18.216 23.857c0-0.008 0.008-0.023 0.023-0.023 0.008 0 0.023 0.008 0.023 0.023v0.356c0 0.008-0.008 0.015-0.023 0.015-0.008 0-0.023-0.008-0.023-0.015v-0.356zM18.441 23.857c0-0.008 0.008-0.015 0.023-0.015 0.008 0 0.015 0.008 0.015 0.015v0.085s0-0.008 0.008-0.008c0.031-0.047 0.085-0.101 0.155-0.101 0.008 0 0.015 0.008 0.015 0.015s-0.008 0.023-0.015 0.023c-0.054 0-0.085 0.031-0.116 0.062-0.023 0.039-0.039 0.077-0.047 0.093v0.178c0 0.008-0.008 0.015-0.015 0.015s-0.023-0.008-0.023-0.015v-0.349zM19.363 23.996c0-0.070-0.054-0.124-0.124-0.124s-0.124 0.054-0.124 0.124v0.217c0 0.008-0.008 0.008-0.008 0.008h-0.015v-0.217c0-0.070-0.054-0.124-0.124-0.124s-0.124 0.054-0.124 0.124v0.217c0 0.008 0 0.015-0.008 0.015h-0.008c-0.008 0-0.015-0.008-0.015-0.015v-0.372c0-0.008 0.008-0.015 0.015-0.015s0.023 0.008 0.023 0.015v0.039c0.031-0.031 0.070-0.054 0.124-0.054 0.062 0 0.116 0.031 0.139 0.085 0.031-0.047 0.085-0.085 0.139-0.085 0.085 0 0.163 0.070 0.163 0.163v0.217c0 0.008-0.008 0.015-0.023 0.015-0.008 0-0.015-0.008-0.015-0.015v-0.217h-0.015z"></path>
<path fill="#f7a9a0" style="fill: var(--color14, #f7a9a0)" d="M20.502 29.528c0.186 0.031 5.199-0.69 5.369-0.837 0.070-0.054 0.008-0.79-0.101-1.681v-0.031c-0.023-0.186-0.659-3.215-0.659-3.215l-3.355 0.473 0.775 3.169 0.008 0.054s-1.798 1.131-1.968 1.317c-0.17 0.194-0.256 0.721-0.070 0.752z"></path>
<path fill="#ffc727" style="fill: var(--color3, #ffc727)" d="M25.871 28.692c-0.17 0.147-5.184 0.876-5.369 0.837-0.186-0.031-0.101-0.558 0.070-0.744s1.968-1.317 1.968-1.317l-0.008-0.054-0.085-0.364 3.247-0.488c0.023 0.132 0.077 0.395 0.077 0.426v0.031c0.108 0.883 0.17 1.619 0.101 1.674z"></path>
<path fill="#a6a6a6" style="fill: var(--color2, #a6a6a6)" d="M20.502 29.528c0.093 0.015 1.457-0.163 2.789-0.364 0.271-0.039 0.535-0.085 0.79-0.124 0.945-0.147 1.728-0.294 1.798-0.349s0.008-0.775-0.093-1.643c0-0.015 0-0.023-0.008-0.039v-0.031l-3.239 0.426 0.008 0.054s-1.798 1.131-1.968 1.317c-0.178 0.194-0.263 0.721-0.077 0.752z"></path>
<path fill="#263238" style="fill: var(--color7, #263238)" d="M20.533 29.327c0.845-0.139 4.254-0.635 5.098-0.713 0.008 0 0.008 0.008 0 0.008-0.829 0.163-4.246 0.628-5.091 0.721-0.023 0-0.031-0.008-0.008-0.015zM22.175 27.475c0.325-0.108 0.736-0.116 1.023 0.085 0.008 0.008 0 0.023-0.008 0.023-0.341-0.054-0.659-0.077-1.007-0.062-0.031 0-0.031-0.039-0.008-0.047zM21.951 27.653c0.325-0.108 0.736-0.116 1.023 0.085 0.008 0.008 0 0.023-0.008 0.023-0.341-0.054-0.659-0.077-1.007-0.062-0.023 0-0.031-0.039-0.008-0.047zM21.734 27.839c0.325-0.108 0.736-0.116 1.023 0.085 0.008 0.008 0 0.023-0.008 0.023-0.341-0.054-0.659-0.077-1.007-0.062-0.023-0.008-0.031-0.039-0.008-0.047z"></path>
<path fill="#37474f" style="fill: var(--color12, #37474f)" d="M22.051 26.855l3.773-0.519s-0.938-6.431-0.907-6.578c0.039-0.194 2.247-9.213 2.247-9.213h-3.092s-2.541 8.368-2.642 9.174c-0.17 1.302 0.62 7.136 0.62 7.136z"></path>
<path fill="#263238" style="fill: var(--color7, #263238)" d="M22.222 26.088c0.643-0.132 2.991-0.411 3.247-0.403 0.008 0 0.008 0.008 0 0.008-0.248 0.070-2.262 0.349-3.247 0.411-0.008 0-0.008-0.015 0-0.015zM26.452 11.235c-0.077 0.225-0.139 0.449-0.209 0.666-0.070 0.225-0.132 0.449-0.194 0.674-0.132 0.442-0.256 0.891-0.38 1.333-0.256 0.899-0.496 1.798-0.736 2.704-0.116 0.449-0.232 0.891-0.349 1.34s-0.24 0.899-0.341 1.348c-0.047 0.217-0.077 0.426-0.070 0.651 0.015 0.225 0.054 0.442 0.093 0.666 0.077 0.457 0.147 0.922 0.225 1.379 0.147 0.93 0.31 1.86 0.465 2.789 0.023 0.116 0.039 0.225 0.062 0.341 0 0.008 0.015 0.008 0.015 0-0.124-0.922-0.279-1.844-0.426-2.766-0.070-0.457-0.147-0.907-0.217-1.364-0.039-0.24-0.077-0.473-0.116-0.713-0.031-0.225-0.054-0.457-0.023-0.682s0.093-0.442 0.147-0.659c0.054-0.225 0.108-0.442 0.17-0.666 0.116-0.449 0.232-0.899 0.349-1.34 0.232-0.899 0.48-1.798 0.721-2.689l0.744-2.673c0.031-0.108 0.062-0.217 0.093-0.333-0.015-0.008-0.023-0.015-0.023-0.008z"></path>
<path fill="#f7a9a0" style="fill: var(--color14, #f7a9a0)" d="M23.733 30.373c0.178 0.054 5.246-0.039 5.431-0.163 0.070-0.047 0.101-0.783 0.116-1.681v-0.031c0-0.186-0.101-3.27-0.101-3.27l-3.308 0.054 0.147 3.247v0.054s-1.922 0.907-2.115 1.061c-0.201 0.163-0.349 0.674-0.17 0.728z"></path>
<path fill="#ffc727" style="fill: var(--color3, #ffc727)" d="M29.288 28.149v0.387c-0.008 0.891-0.039 1.635-0.116 1.681-0.186 0.124-5.253 0.217-5.431 0.163s-0.031-0.566 0.163-0.728c0.194-0.163 2.115-1.061 2.115-1.061v-0.054l-0.015-0.349c0.581-0.015 2.255-0.031 3.285-0.039z"></path>
<path fill="#a6a6a6" style="fill: var(--color2, #a6a6a6)" d="M23.733 30.373c0.178 0.054 5.246-0.039 5.431-0.163 0.070-0.047 0.101-0.783 0.116-1.681v-0.031l-3.27 0.023v0.054s-1.922 0.907-2.115 1.061c-0.194 0.17-0.341 0.682-0.163 0.736z"></path>
<path fill="#263238" style="fill: var(--color7, #263238)" d="M23.787 30.171c0.852-0.039 4.3-0.101 5.145-0.077 0.008 0 0.008 0.008 0 0.008-0.845 0.054-4.293 0.093-5.145 0.085-0.015 0-0.015-0.015 0-0.015zM25.646 28.544c0.333-0.070 0.744-0.023 1.007 0.209 0.008 0.008 0 0.023-0.015 0.023-0.333-0.101-0.643-0.163-0.992-0.186-0.015-0.008-0.023-0.047 0-0.047z"></path>
<path fill="#263238" style="fill: var(--color7, #263238)" d="M25.414 28.692c0.333-0.070 0.744-0.023 1.007 0.209 0.008 0.008 0 0.023-0.015 0.023-0.333-0.101-0.643-0.163-0.992-0.186-0.023-0.008-0.031-0.039 0-0.047z"></path>
<path fill="#263238" style="fill: var(--color7, #263238)" d="M25.174 28.839c0.333-0.070 0.744-0.023 1.007 0.209 0.008 0.008 0 0.023-0.015 0.023-0.333-0.101-0.643-0.163-0.992-0.186-0.023 0-0.031-0.039 0-0.047z"></path>
<path fill="#37474f" style="fill: var(--color12, #37474f)" d="M24.159 10.545s0.070 1.48 0.411 2.65c0.023 0.101 0.054 0.194 0.085 0.287 0 0 0.132 0 0.674 0.325l0.449 14.171 3.649-0.039s-0.581-7.508-0.581-7.988c0.008-0.775-0.418-6.013-0.372-6.144 0.449-1.356-0.294-3.262-0.294-3.262h-4.021z"></path>
<path fill="#263238" style="fill: var(--color7, #263238)" d="M25.902 27.297c1.030-0.062 3.022-0.077 3.27-0.039 0.008 0 0.008 0.008 0 0.008-0.256 0.047-2.673 0.093-3.27 0.047-0.008 0-0.008-0.008 0-0.015zM25.677 21.377c-0.047-1.627-0.101-3.247-0.163-4.874-0.039-0.914-0.077-1.829-0.132-2.751 0-0.031-0.054-0.031-0.047 0 0.039 1.635 0.101 3.262 0.155 4.897 0.054 1.627 0.108 3.247 0.163 4.874 0.031 0.914 0.062 1.829 0.101 2.751 0 0.015 0.023 0.015 0.023 0-0.015-1.635-0.054-3.262-0.101-4.897zM28.529 23.647c-0.077-1.061-0.155-2.131-0.24-3.192-0.077-1.061-0.155-2.131-0.24-3.192-0.039-0.535-0.077-1.061-0.116-1.596-0.023-0.263-0.039-0.535-0.062-0.798s-0.054-0.527-0.047-0.79c0.008-0.287 0.132-0.542 0.201-0.821 0.062-0.263 0.085-0.535 0.085-0.798-0.008-0.558-0.132-1.1-0.248-1.643-0.008-0.031-0.054-0.015-0.047 0.015 0.116 0.496 0.225 1 0.248 1.511 0.008 0.256 0 0.511-0.054 0.759-0.047 0.24-0.147 0.465-0.201 0.705-0.062 0.248-0.023 0.496-0.008 0.752 0.023 0.263 0.039 0.535 0.054 0.798 0.039 0.519 0.077 1.046 0.116 1.565 0.155 2.123 0.31 4.238 0.48 6.361 0.093 1.193 0.17 2.386 0.287 3.58 0 0.008 0.015 0.008 0.015 0-0.062-1.085-0.147-2.154-0.225-3.215zM27.785 12.149c-0.062-0.023-0.132-0.031-0.194-0.046-0.070-0.015-0.132-0.039-0.194-0.070-0.116-0.054-0.24-0.124-0.341-0.201-0.108-0.085-0.17-0.194-0.217-0.318-0.031-0.062-0.054-0.132-0.077-0.201-0.015-0.031-0.023-0.062-0.039-0.101-0.008-0.015-0.039-0.085-0.047-0.101h0.008v-0.008c-0.008-0.008-0.008-0.008-0.015-0.008 0 0-0.008 0-0.008 0.008-0.015 0.023 0 0.046 0.008 0.070 0.008 0.046 0.023 0.085 0.031 0.132 0.023 0.077 0.039 0.155 0.062 0.225 0.047 0.139 0.108 0.271 0.217 0.364s0.24 0.17 0.38 0.217c0.070 0.023 0.139 0.046 0.217 0.062 0.070 0.008 0.139 0.023 0.209 0.015 0.008-0.015 0.008-0.031 0-0.039zM24.848 12.97c-0.008-0.124-0.015-0.256-0.031-0.38-0.023-0.287-0.054-0.581-0.108-0.868-0.008-0.023-0.039-0.015-0.031 0.008l0.070 0.674c0.023 0.225 0.047 0.449 0.054 0.674 0 0.070 0 0.186-0.085 0.201-0.108 0.023-0.163-0.124-0.194-0.201-0.070-0.201-0.108-0.411-0.139-0.612-0.039-0.24-0.054-0.48-0.077-0.713 0-0.008-0.015-0.008-0.015 0 0 0.473 0.008 0.969 0.178 1.418 0.031 0.085 0.093 0.178 0.194 0.186h0.008v0.008c0 0.015 0.008 0.023 0.008 0.039 0 0.008 0.008 0.023 0.008 0.031 0.008 0.023 0.008 0.046 0.015 0.070s0.031 0.015 0.031-0.008c0.008 0 0.008-0.008 0.008-0.015 0-0.046-0.015-0.093-0.031-0.132 0.054-0.008 0.101-0.046 0.124-0.101 0.039-0.093 0.023-0.194 0.015-0.279z"></path>
<path fill="#263238" style="fill: var(--color7, #263238)" d="M24.508 13.389c0.364 0.147 0.713 0.341 1.046 0.542 0.015 0.008 0 0.031-0.008 0.023-0.349-0.17-0.713-0.333-1.054-0.527-0.031-0.015-0.015-0.046 0.015-0.039zM24.469 8.624c0.217 0.17 0.426 0.294 0.635 0.395-0.341-0.581-0.294-1.891-0.248-1.705 0.201 0.891 0.759 1.867 0.976 1.922 0.573 0.077 1.093-0.077 1.526-0.325-0.442-0.659-0.426-1.984-0.395-1.906 0.325 0.868 1 1.371 1.116 1.371 0.434-0.411 0.659-0.821 0.597-0.868-0.449-0.302-0.829-1.085-1.17-1.914-0.341-0.814-0.511-1.596-0.992-2.324-0.434-0.666-1.309-0.79-1.805-0.449-1.294 0.899-0.519 5.594-0.24 5.803z"></path>
<path fill="#263238" style="fill: var(--color7, #263238)" d="M25.817 2.867c0.356 0.085 0.659 0.411 0.845 0.721 0.248 0.403 0.418 0.86 0.62 1.294 0.411 0.845 0.922 1.619 1.565 2.301 0.015 0.016-0.008 0.039-0.023 0.023-0.697-0.527-1.178-1.278-1.565-2.053-0.201-0.395-0.356-0.814-0.55-1.209-0.101-0.217-0.225-0.434-0.38-0.62-0.155-0.178-0.333-0.287-0.535-0.387-0.031-0.031-0.015-0.085 0.023-0.070z"></path>
<path fill="#ebebeb" style="fill: var(--color13, #ebebeb)" d="M30.435 19.735l-5.091 0.907-0.186-5.315 3.611-0.651 1.666 5.060z"></path>
<path fill="#4a56e2" style="fill: var(--color1, #4a56e2)" d="M28.769 14.675l0.356 5.292 1.309-0.232-1.666-5.060z"></path>
<path fill="#263238" style="fill: var(--color7, #263238)" d="M26.166 15.535h-0.186v-1.038c0.008-0.566 0.48-0.922 0.93-0.945 0.341-0.015 0.759 0.163 0.829 0.721 0.070 0.604 0.085 0.891 0.085 0.899l-0.186 0.008s-0.015-0.294-0.085-0.891c-0.047-0.434-0.356-0.573-0.628-0.558-0.372 0.023-0.752 0.31-0.759 0.759v1.046z"></path>
<path fill="#fff" style="fill: var(--color4, #fff)" d="M29.187 19.913c0.093-0.093 0.186-0.178 0.287-0.271 0.093-0.085 0.194-0.17 0.294-0.256l0.015-0.008 0.015 0.008c0.101 0.047 0.194 0.101 0.294 0.155 0.093 0.054 0.194 0.108 0.287 0.163-0.101-0.039-0.201-0.085-0.302-0.124-0.101-0.047-0.201-0.093-0.294-0.139h0.031c-0.101 0.085-0.201 0.17-0.302 0.248-0.116 0.070-0.217 0.147-0.325 0.225z"></path>
<path fill="#fff" style="fill: var(--color4, #fff)" d="M29.784 19.409c-0.085-0.325-0.155-0.651-0.232-0.984-0.077-0.325-0.147-0.659-0.217-0.984-0.070-0.333-0.139-0.659-0.201-0.992l-0.101-0.496c-0.031-0.163-0.062-0.333-0.093-0.496l0.232 0.976c0.077 0.325 0.147 0.659 0.217 0.984 0.070 0.333 0.139 0.659 0.201 0.992 0.070 0.341 0.139 0.666 0.194 1z"></path>
<path fill="#263238" style="fill: var(--color7, #263238)" d="M26.321 15.481c0.031 0.132-0.054 0.263-0.194 0.294-0.132 0.031-0.263-0.054-0.294-0.194-0.031-0.132 0.054-0.263 0.194-0.294 0.132-0.031 0.263 0.054 0.294 0.194zM27.955 15.124c0.031 0.132-0.054 0.263-0.194 0.294-0.132 0.031-0.263-0.054-0.294-0.194-0.031-0.132 0.054-0.263 0.194-0.294 0.132-0.023 0.271 0.062 0.294 0.194z"></path>
<path fill="#ffc727" style="fill: var(--color3, #ffc727)" d="M29.846 21.253h-5.974l0.868-6.082h4.23l0.876 6.082z"></path>
<path fill="#000" style="fill: var(--color15, #000)" opacity="0.1" d="M28.97 15.171l-0.659 6.082h1.534l-0.876-6.082z"></path>
<path fill="#263238" style="fill: var(--color7, #263238)" d="M25.933 15.589l-0.186-0.039c0-0.008 0.108-0.519 0.225-1.030 0.124-0.558 0.674-0.814 1.131-0.744 0.341 0.054 0.721 0.325 0.666 0.899-0.062 0.612-0.108 0.899-0.108 0.914l-0.186-0.031s0.047-0.294 0.108-0.899c0.047-0.442-0.232-0.643-0.504-0.69-0.372-0.062-0.814 0.147-0.914 0.597-0.124 0.511-0.232 1.015-0.232 1.023z"></path>
<path fill="#fff" style="fill: var(--color4, #fff)" d="M28.389 21.207c0.124-0.085 0.248-0.17 0.38-0.248 0.124-0.077 0.256-0.155 0.387-0.232l0.015-0.008 0.015 0.015 0.302 0.232c0.101 0.077 0.194 0.155 0.294 0.24-0.108-0.062-0.217-0.132-0.318-0.209-0.108-0.070-0.209-0.147-0.31-0.217h0.031c-0.132 0.077-0.263 0.147-0.395 0.217-0.132 0.077-0.263 0.147-0.403 0.209z"></path>
<path fill="#fff" style="fill: var(--color4, #fff)" d="M29.172 20.757c-0.023-0.387-0.047-0.775-0.062-1.162l-0.047-1.162c-0.008-0.387-0.023-0.775-0.031-1.162l-0.008-0.581c0-0.194-0.008-0.387-0.008-0.581 0.015 0.194 0.023 0.387 0.039 0.581l0.031 0.581 0.047 1.162c0.008 0.387 0.023 0.775 0.031 1.162 0 0.387 0.008 0.775 0.008 1.162z"></path>
<path fill="#263238" style="fill: var(--color7, #263238)" d="M25.84 15.83c0.141 0 0.256-0.114 0.256-0.256s-0.114-0.256-0.256-0.256v0c-0.141 0-0.256 0.114-0.256 0.256s0.114 0.256 0.256 0.256v0zM27.545 15.83c0.141 0 0.256-0.114 0.256-0.256s-0.114-0.256-0.256-0.256v0c-0.141 0-0.256 0.114-0.256 0.256s0.114 0.256 0.256 0.256v0z"></path>
<path fill="#a6a6a6" style="fill: var(--color2, #a6a6a6)" d="M21.199 4.114l0.721 2.239c0.031 0.062 0 0.124-0.070 0.124l-1.17 0.077c-0.062 0.008-0.139-0.046-0.17-0.108l-0.721-2.239c-0.031-0.062 0-0.124 0.070-0.124l1.17-0.077c0.062 0 0.139 0.046 0.17 0.108z"></path>
<path fill="#dbdbdb" style="fill: var(--color11, #dbdbdb)" d="M21.060 4.122l0.721 2.239c0.031 0.062 0 0.124-0.070 0.124l-1.17 0.077c-0.062 0.008-0.139-0.046-0.17-0.108l-0.721-2.239c-0.031-0.062 0-0.124 0.070-0.124l1.17-0.077c0.062-0.008 0.139 0.046 0.17 0.108z"></path>
<path fill="#455a64" style="fill: var(--color10, #455a64)" d="M20.742 4.246c0.008 0.054 0.054 0.093 0.108 0.093 0.054-0.008 0.093-0.054 0.093-0.108-0.008-0.054-0.054-0.093-0.108-0.093-0.054 0.008-0.093 0.054-0.093 0.108z"></path>
<path fill="#f7a9a0" style="fill: var(--color14, #f7a9a0)" d="M25.205 7.322c-0.558 1.464-1.922 3.409-2.534 3.456-0.294 0.023-0.814 0.132-1.224-0.178-0.891-0.674-1.697-2.030-1.898-2.828-0.070-0.279 1.278-1.007 1.503-0.79 0.519 0.511 1.162 1.542 1.247 1.526 0.318-0.046 1.472-1.162 2.286-1.953 0.969-0.938 0.837 0.178 0.62 0.767zM19.401 6.299c0.108-0.589 0.225-0.728 0.047-1.278-0.116-0.356 0.062-0.589 0.341-0.31 0.457 0.449 0.48 1.24 0.411 1.519l-0.798 0.070z"></path>
<path fill="#f7a9a0" style="fill: var(--color14, #f7a9a0)" d="M19.634 8.019s-0.318-0.79-0.271-1.433c0.031-0.442 0.217-1.402 1.41-1.991 0.287-0.139 0.783-0.139 0.403 0.256-0.271 0.279-0.527 0.38-0.651 0.566 0 0 0.635 0.077 0.767 0.372 0.054 0.132 0.201 0.488 0.279 0.783 0 0-0.062 0.031-0.139 0.062 0 0 0.093 0.279-0.085 0.697l-1.712 0.69z"></path>
<path fill="#f7a9a0" style="fill: var(--color14, #f7a9a0)" d="M19.463 6.168c0.17-0.163 0.527-0.504 0.914-0.682 0.434-0.194 1.325-0.457 1.464-0.132 0.101 0.232-0.225 0.364-0.225 0.364s0.387-0.031 0.434 0.201c0.047 0.209-0.217 0.294-0.217 0.294s0.24 0.023 0.24 0.232c0 0.256-0.504 0.17-0.721 0.426-0.047 0.070-1.891-0.705-1.891-0.705z"></path>
<path fill="#263238" style="fill: var(--color7, #263238)" d="M20.509 5.982c0.178-0.132 0.666-0.31 1.1-0.271 0.008 0 0.015 0.008 0.008 0.008-0.488 0.054-0.922 0.194-1.108 0.263 0 0.008 0 0 0 0zM20.719 6.415c0.17-0.093 0.682-0.263 1.116-0.201 0.008 0 0.015 0.008 0.008 0.008-0.511 0.031-0.93 0.139-1.123 0.194z"></path>
<path fill="#ffc727" style="fill: var(--color3, #ffc727)" d="M21.517 7.477l-1.619 1.875s1.387 1.356 1.836 1.464c0.449 0.108 0.79 0.039 1.108-0.046 0.318-0.093 1.867-1.891 2.379-3.355 0.511-1.472-0.039-1.542-0.907-0.651s-1.945 1.767-1.999 1.705c-0.054-0.070-0.798-0.992-0.798-0.992z"></path>
<path fill="#000" style="fill: var(--color15, #000)" opacity="0.1" d="M21.517 7.477l-1.619 1.875s1.387 1.356 1.836 1.464c0.449 0.108 0.79 0.039 1.108-0.046 0.318-0.093 1.867-1.891 2.379-3.355 0.511-1.472-0.039-1.542-0.907-0.651s-1.945 1.767-1.999 1.705c-0.054-0.070-0.798-0.992-0.798-0.992z"></path>
<path fill="#263238" style="fill: var(--color7, #263238)" d="M21.811 7.996c-0.070 0.062-0.604 0.666-0.728 0.806-0.116 0.132-0.581 0.697-0.697 0.837-0.008 0.008 0 0.015 0.008 0.008 0.062-0.070 0.132-0.132 0.194-0.201s0.426-0.48 0.542-0.612c0.116-0.139 0.643-0.759 0.69-0.829 0.008-0.008 0-0.016-0.008-0.008z"></path>
<path fill="#ffc727" style="fill: var(--color3, #ffc727)" d="M23.725 9.894l-0.302 2.603s4.223-0.062 5.269-0.17c0 0-1-4.819-2.162-6.013-0.581-0.597-1.24-0.527-1.65-0.093-0.101 0.108-1.325 1.836-1.441 2.479-0.101 0.581 0.287 1.193 0.287 1.193z"></path>
<path fill="#263238" style="fill: var(--color7, #263238)" d="M23.554 9.476c-0.047-0.147-0.077-0.302-0.077-0.457 0-0.318 0.093-0.628 0.232-0.907 0.077-0.163 0.17-0.318 0.248-0.48 0-0.008-0.008-0.008-0.008 0-0.077 0.108-0.139 0.225-0.201 0.333 0-0.008 0-0.008 0.008-0.016 0.015-0.062 0.039-0.124 0.062-0.186 0-0.008-0.008-0.008-0.008-0.008-0.023 0.062-0.047 0.116-0.070 0.178-0.015 0.039-0.023 0.077-0.031 0.116-0.077 0.139-0.139 0.287-0.194 0.442-0.101 0.302-0.116 0.628-0.023 0.938 0.023 0.077 0.062 0.155 0.093 0.232 0.039 0.085 0.093 0.163 0.139 0.24 0 0.008 0.015 0 0.008-0.008-0.077-0.124-0.132-0.271-0.178-0.418z"></path>
<path fill="#f7a9a0" style="fill: var(--color14, #f7a9a0)" d="M25.84 6.245c-0.031 0.077-0.527 0.535-0.891 0.449-0.124-0.031 0.008-0.69 0.008-0.69v-0.054l-0.023-0.713 0.907-0.364 0.132-0.046s-0.008 0.194-0.015 0.442v0.070c0 0.039 0 0.077-0.008 0.108 0 0.031 0 0.054-0.008 0.085 0 0.031-0.008 0.062-0.008 0.085-0.023 0.302-0.077 0.597-0.093 0.628z"></path>
<path fill="#263238" style="fill: var(--color7, #263238)" d="M25.949 5.261c-0.302 0.511-0.783 0.651-0.992 0.69l-0.023-0.713 0.907-0.364 0.132-0.046c-0.008-0.008-0.008 0.194-0.023 0.434z"></path>
<path fill="#f7a9a0" style="fill: var(--color14, #f7a9a0)" d="M24.089 4.13c-0.17 1.247 0.558 1.488 0.821 1.526 0.24 0.031 1.077 0.116 1.379-1.108s-0.225-1.697-0.783-1.805c-0.55-0.101-1.247 0.139-1.418 1.387z"></path>
<path fill="#263238" style="fill: var(--color7, #263238)" d="M24.422 3.874c0.031 0 0.054 0 0.085-0.008 0.031 0 0.062 0 0.085-0.023 0.015-0.008 0.015-0.039 0.008-0.054-0.023-0.039-0.062-0.039-0.108-0.039s-0.077 0.015-0.108 0.046c-0.023 0.023 0 0.077 0.039 0.077zM25.244 3.998c-0.031-0.008-0.054-0.015-0.085-0.031s-0.054-0.015-0.077-0.046c-0.008-0.015-0.008-0.039 0.008-0.054 0.031-0.031 0.077-0.023 0.108-0.008 0.039 0.015 0.070 0.031 0.093 0.070 0.031 0.031-0.008 0.077-0.047 0.070zM25.034 4.285l0.008 0.008c-0.015 0.085-0.023 0.186 0.054 0.225v0.008c-0.101-0.031-0.093-0.163-0.062-0.24z"></path>
<path fill="#263238" style="fill: var(--color7, #263238)" d="M25.127 4.215c0.139 0.016 0.101 0.287-0.023 0.279-0.132-0.016-0.093-0.294 0.023-0.279z"></path>
<path fill="#263238" style="fill: var(--color7, #263238)" d="M25.174 4.231c0.023 0.016 0.039 0.046 0.070 0.054s0.062-0.016 0.085-0.046h0.008c-0.008 0.054-0.031 0.101-0.093 0.108-0.054 0-0.085-0.046-0.093-0.108 0.008 0 0.015-0.016 0.023-0.008zM24.546 4.207c-0.008 0 0 0 0 0-0.015 0.093-0.039 0.186-0.116 0.209v0.008c0.093-0.008 0.124-0.132 0.116-0.217z"></path>
<path fill="#263238" style="fill: var(--color7, #263238)" d="M24.477 4.107c-0.139-0.023-0.178 0.248-0.054 0.271 0.132 0.023 0.17-0.248 0.054-0.271z"></path>
<path fill="#263238" style="fill: var(--color7, #263238)" d="M24.422 4.122c-0.023 0.008-0.047 0.031-0.077 0.031s-0.047-0.039-0.062-0.070h-0.008c-0.008 0.054 0 0.108 0.047 0.124s0.085-0.023 0.108-0.070c0.008-0.008 0-0.023-0.008-0.016zM24.926 4.967c-0.023 0.016-0.047 0.046-0.077 0.046s-0.062-0.016-0.093-0.031c0 0-0.008 0-0.008 0.008 0.023 0.031 0.062 0.062 0.108 0.054 0.039 0 0.062-0.039 0.070-0.070 0.008-0.008 0-0.016 0-0.008zM24.608 4.61l-0.047 0.186c0 0.008 0.015 0.008 0.031 0.016 0.101 0.031 0.217 0.008 0.287-0.070 0.008-0.008 0-0.016-0.008-0.008-0.085 0.046-0.178 0.054-0.271 0.039 0-0.016 0.070-0.209 0.054-0.217-0.031-0.008-0.101 0.008-0.139 0.016 0.062-0.263 0.17-0.511 0.232-0.775 0-0.008-0.008-0.015-0.015-0.008-0.132 0.256-0.209 0.55-0.287 0.821 0.008 0.039 0.139 0.008 0.163 0z"></path>
<path fill="#263238" style="fill: var(--color7, #263238)" d="M26.181 4.556c-0.31-0.023-0.364-0.976-0.364-1.093 0 0.077-0.008 0.465-0.039 0.48-0.008 0-0.039-0.008-0.093-0.023 0-0.046 0-0.093-0.008-0.139 0-0.023-0.008 0.046-0.023 0.132-0.015-0.008-0.039-0.015-0.054-0.015 0.008-0.085 0.008-0.186-0.015-0.294-0.008-0.039-0.023 0.132-0.062 0.271-0.209-0.062-0.511-0.155-0.798-0.17-0.077-0.008-0.139-0.008-0.201-0.008 0.008-0.116 0.023-0.24 0.015-0.209-0.031 0.077-0.047 0.147-0.054 0.209h-0.085c0-0.163 0.085-0.418 0.054-0.38-0.108 0.147-0.155 0.31-0.17 0.395-0.108 0.015-0.139 0.039-0.147 0.008 0-0.054 0.077-0.504 0.442-0.821 0.395-0.349 1.17-0.411 1.581 0.163 0 0 0.349 0.248 0.387 0.62 0.031 0.38-0.186 0.891-0.364 0.876z"></path>
<path fill="#f7a9a0" style="fill: var(--color14, #f7a9a0)" d="M26.080 4.618s0.294-0.38 0.465-0.271c0.17 0.108-0.062 0.666-0.271 0.728-0.209 0.070-0.279-0.132-0.279-0.132l0.085-0.325z"></path>
<path fill="#263238" style="fill: var(--color7, #263238)" d="M26.476 4.509c-0.147 0.054-0.232 0.186-0.294 0.325 0.047-0.054 0.108-0.077 0.178-0.023 0 0 0 0.008-0.008 0.008-0.062-0.016-0.101-0.008-0.147 0.039-0.031 0.031-0.054 0.077-0.077 0.116-0.008 0.016-0.031 0.008-0.023-0.008 0.008-0.194 0.17-0.449 0.372-0.457z"></path>
<path fill="#f7a9a0" style="fill: var(--color14, #f7a9a0)" d="M26.754 6.315c1.449 1.185 2.619 2.999 2.681 3.456 0.070 0.504-0.108 2.34-0.589 3.27-0.124 0.248-1.999-0.876-1.875-1.139 0.24-0.519 0.589-1.929 0.542-2.208-0.047-0.263-0.783-1.829-1.294-2.65-0.457-0.759-0.139-1.278 0.535-0.728z"></path>
<path fill="#f7a9a0" style="fill: var(--color14, #f7a9a0)" d="M25.538 14.133c0.124 0.194 0.356 0.132 0.356 0.132s0 0.186 0.116 0.31c0.139 0.147 0.426-0.008 0.426-0.008s0.039 0.186 0.178 0.31c0.147 0.124 0.457 0.015 0.457 0.015s0.132 0.155 0.325 0.17c0.341 0.031 0.651-0.387 0.852-0.643 0.201-0.263 0.527-1.193 0.604-1.364l-1.666-1.302s-1.232 0.914-1.426 1.255c-0.155 0.279-0.364 0.907-0.225 1.123z"></path>
<path fill="#263238" style="fill: var(--color7, #263238)" d="M25.871 14.226c0.101-0.349 0.294-0.643 0.473-0.953 0.008-0.008 0.015 0 0.008 0.008-0.178 0.302-0.302 0.643-0.465 0.953-0.008 0.008-0.015 0-0.015-0.008zM26.421 14.536c0.023-0.077 0.077-0.147 0.116-0.217 0.047-0.070 0.093-0.147 0.147-0.217 0.101-0.139 0.201-0.287 0.31-0.418 0.008-0.008 0.015 0 0.008 0.008-0.101 0.139-0.194 0.287-0.287 0.434-0.047 0.070-0.093 0.147-0.139 0.225-0.039 0.070-0.077 0.147-0.139 0.201-0.008 0.008-0.023 0-0.015-0.015zM27.080 14.877c0.015-0.070 0.077-0.132 0.116-0.186 0.047-0.062 0.093-0.132 0.139-0.194 0.093-0.132 0.186-0.256 0.271-0.395 0.008-0.008 0.015 0 0.008 0.008-0.085 0.132-0.17 0.271-0.263 0.403-0.047 0.070-0.085 0.132-0.132 0.194-0.039 0.062-0.077 0.132-0.139 0.17z"></path>
<path fill="#ffc727" style="fill: var(--color3, #ffc727)" d="M26.057 6.888c0.279 0.79 1.41 2.665 1.402 2.844s-0.558 2.061-0.558 2.061l2.239 1.356s0.496-2.565 0.31-3.456c-0.139-0.682-1.72-2.673-2.487-3.285-0.767-0.604-1.263-0.527-0.907 0.48z"></path>
<path fill="#000" style="fill: var(--color15, #000)" opacity="0.1" d="M26.057 6.888c0.279 0.79 1.41 2.665 1.402 2.844s-0.558 2.061-0.558 2.061l2.239 1.356s0.496-2.565 0.31-3.456c-0.139-0.682-1.72-2.673-2.487-3.285-0.767-0.604-1.263-0.527-0.907 0.48z"></path>
<path fill="#263238" style="fill: var(--color7, #263238)" d="M27.467 9.623c-0.023-0.132-0.101-0.256-0.163-0.372-0.139-0.263-0.279-0.527-0.434-0.783-0.085-0.139-0.418-0.69-0.511-0.868-0.008-0.016-0.031 0-0.023 0.016 0.054 0.108 0.209 0.387 0.325 0.589-0.015-0.023-0.031-0.039-0.054-0.062-0.031-0.039-0.070-0.077-0.101-0.108-0.039-0.039-0.085-0.070-0.116-0.116-0.008-0.008-0.015 0-0.008 0.008 0.062 0.085 0.132 0.155 0.201 0.232 0.031 0.039 0.070 0.077 0.101 0.116 0.023 0.023 0.047 0.054 0.070 0.077 0.008 0.008 0.008 0.015 0.015 0.023 0.147 0.256 0.279 0.511 0.418 0.767 0.070 0.124 0.147 0.248 0.194 0.38 0.023 0.062 0.039 0.124 0.039 0.194-0.008 0.077-0.031 0.155-0.047 0.225-0.077 0.279-0.147 0.558-0.225 0.845-0.039 0.163-0.085 0.325-0.124 0.488s-0.085 0.325-0.108 0.488c0 0.008 0.015 0.023 0.023 0.008 0.054-0.139 0.093-0.287 0.132-0.426 0.039-0.147 0.085-0.294 0.124-0.434 0.077-0.294 0.155-0.589 0.232-0.891 0.015-0.124 0.062-0.256 0.039-0.395zM29.118 12.568c-0.604-0.426-1.24-0.821-1.891-1.185-0.008 0-0.015 0.008-0.008 0.008 0.604 0.426 1.232 0.829 1.883 1.185 0.015 0.015 0.023 0 0.015-0.008z"></path>
<path fill="#ffc727" style="fill: var(--color3, #ffc727)" d="M5.71 23.957h3.417c0.449 0 0.814-0.364 0.814-0.814v-6.4c0-0.232 0.163-0.821 0.868-0.821h-4.293c-0.449 0-0.814 0.364-0.814 0.814v7.221h0.008z"></path>
<path fill="#000" style="fill: var(--color15, #000)" opacity="0.1" d="M5.71 23.957h3.417c0.449 0 0.814-0.364 0.814-0.814v-6.4c0-0.232 0.163-0.821 0.868-0.821h-4.293c-0.449 0-0.814 0.364-0.814 0.814v7.221h0.008z"></path>
<path fill="#000" style="fill: var(--color15, #000)" opacity="0.010000000000000002" d="M9.399 16.744h-3.068v0.139h3.068v-0.139zM9.399 17.139h-3.068v0.139h3.068v-0.139zM9.399 17.534h-3.068v0.139h3.068v-0.139zM9.399 17.929h-3.068v0.139h3.068v-0.139zM9.399 18.324h-3.068v0.139h3.068v-0.139zM9.399 18.72h-3.068v0.139h3.068v-0.139zM9.399 19.115h-3.068v0.139h3.068v-0.139zM9.399 19.51h-3.068v0.139h3.068v-0.139zM9.399 19.913h-3.068v0.139h3.068v-0.139zM9.399 20.308h-3.068v0.139h3.068v-0.139zM9.399 20.703h-3.068v0.139h3.068v-0.139zM9.399 21.098h-3.068v0.139h3.068v-0.139zM9.399 21.493h-3.068v0.139h3.068v-0.139zM9.399 21.889h-3.068v0.139h3.068v-0.139zM9.399 22.284h-3.068v0.139h3.068v-0.139zM9.399 22.679h-3.068v0.139h3.068v-0.139z"></path>
<path fill="#ffc727" style="fill: var(--color3, #ffc727)" d="M2.41 21.253v7.725h2.588v0.008c0 0.449 0.356 0.814 0.806 0.821h0.031c0.031 0 0.054 0 0.085-0.008l0.155-0.031c0.039-0.015 0.077-0.031 0.108-0.047 0.016-0.008 0.039-0.015 0.054-0.031 0.008-0.008 0.016-0.008 0.023-0.015l0.070-0.047 0.008-0.008c0.016-0.015 0.031-0.023 0.046-0.039l0.023-0.023c0.093-0.093 0.163-0.209 0.201-0.333v-0.008c0.008-0.023 0.008-0.039 0.016-0.062s0.008-0.054 0.016-0.077v-7.833c0-0.232 0.163-0.821 0.868-0.821h-4.285c-0.449 0.015-0.814 0.38-0.814 0.829z"></path>
<path fill="#000" style="fill: var(--color15, #000)" opacity="0.010000000000000002" d="M6.044 20.951h-3.068v0.139h3.068v-0.139zM6.33 20.587h-3.068v0.139h3.068v-0.139zM6.044 21.346h-3.068v0.139h3.068v-0.139zM6.044 21.741h-3.068v0.139h3.068v-0.139zM6.044 22.144h-3.068v0.139h3.068v-0.139zM6.044 22.539h-3.068v0.139h3.068v-0.139zM6.044 22.935h-3.068v0.139h3.068v-0.139zM6.044 23.33h-3.068v0.139h3.068v-0.139zM6.044 23.725h-3.068v0.139h3.068v-0.139zM6.044 24.12h-3.068v0.139h3.068v-0.139zM6.044 24.515h-3.068v0.139h3.068v-0.139zM6.044 24.91h-3.068v0.139h3.068v-0.139zM6.044 25.313h-3.068v0.139h3.068v-0.139zM6.044 25.708h-3.068v0.139h3.068v-0.139zM6.044 26.104h-3.068v0.139h3.068v-0.139zM6.044 26.499h-3.068v0.139h3.068v-0.139zM6.044 26.894h-3.068v0.139h3.068v-0.139zM6.044 27.289h-3.068v0.139h3.068v-0.139zM6.044 27.684h-3.068v0.139h3.068v-0.139zM6.044 28.258h-1.534v0.325h1.534v-0.325z"></path>
<path fill="#ffc727" style="fill: var(--color3, #ffc727)" d="M9.104 23.957h0.023c0.031 0 0.062 0 0.093-0.008-0.031 0-0.054 0.008-0.085 0.008h-0.031zM10.77 15.923c-0.457 0-0.821 0.372-0.821 0.821v1.55h1.643v-1.55c0-0.449-0.372-0.821-0.821-0.821z"></path>
<path fill="#000" style="fill: var(--color15, #000)" opacity="0.2" d="M10.77 15.923c-0.457 0-0.821 0.372-0.821 0.821v1.55h1.643v-1.55c0-0.449-0.372-0.821-0.821-0.821z"></path>
<path fill="#ffc727" style="fill: var(--color3, #ffc727)" d="M6.64 21.261v2.704h2.448c-0.442-0.008-0.806-0.372-0.806-0.821v-1.883c0-0.457-0.372-0.821-0.821-0.821-0.225 0-0.434 0.093-0.581 0.24s-0.24 0.349-0.24 0.581z"></path>
<path fill="#000" style="fill: var(--color15, #000)" opacity="0.2" d="M6.64 21.261v2.704h2.448c-0.442-0.008-0.806-0.372-0.806-0.821v-1.883c0-0.457-0.372-0.821-0.821-0.821-0.225 0-0.434 0.093-0.581 0.24s-0.24 0.349-0.24 0.581z"></path>
<path fill="#ffc727" style="fill: var(--color3, #ffc727)" d="M1.209 28.978v0.008c0 0.449 0.356 0.814 0.806 0.821h3.789c-0.442-0.008-0.806-0.372-0.806-0.821v-0.008h-3.789z"></path>
<path fill="#000" style="fill: var(--color15, #000)" opacity="0.2" d="M1.209 28.978v0.008c0 0.449 0.356 0.814 0.806 0.821h3.789c-0.442-0.008-0.806-0.372-0.806-0.821v-0.008h-3.789z"></path>
</svg>